<svg xmlns="http://www.w3.org/2000/svg" width="72" height="44" viewBox="0 0 72 44">
    <g fill="none" fill-rule="evenodd" stroke="#FFF" stroke-width="2">
        <g opacity=".5">
            <path d="M33.206 14.325v4.13a3.432 3.432 0 0 1-3.433 3.432h-18.49a3.433 3.433 0 0 0-3.434 3.432v4.13M38.757 14.325v4.13a3.432 3.432 0 0 0 3.432 3.432h18.492a3.432 3.432 0 0 1 3.432 3.432v4.13M36.075 14.325v15.124M40.677 14.325h-9.391a1.89 1.89 0 0 1-1.89-1.891v-9.39a1.89 1.89 0 0 1 1.89-1.891h9.39a1.89 1.89 0 0 1 1.891 1.89v9.391a1.89 1.89 0 0 1-1.89 1.89z"/>
        </g>
        <g stroke-linejoin="round">
            <path d="M68.809 42.621h-9.391a1.89 1.89 0 0 1-1.89-1.89V31.34a1.89 1.89 0 0 1 1.89-1.89h9.39a1.89 1.89 0 0 1 1.891 1.89v9.39a1.89 1.89 0 0 1-1.89 1.891zM12.545 42.621h-9.39a1.891 1.891 0 0 1-1.891-1.89V31.34a1.89 1.89 0 0 1 1.89-1.89h9.39a1.89 1.89 0 0 1 1.891 1.89v9.39a1.89 1.89 0 0 1-1.89 1.891zM40.677 42.621h-9.391a1.89 1.89 0 0 1-1.89-1.89V31.34a1.89 1.89 0 0 1 1.89-1.89h9.39a1.89 1.89 0 0 1 1.891 1.89v9.39a1.89 1.89 0 0 1-1.89 1.891z"/>
        </g>
    </g>
</svg>
