<?xml version="1.0" encoding="UTF-8"?>
<svg viewBox="0 0 42 53" version="1.1" xmlns="http://www.w3.org/2000/svg" xmlns:xlink="http://www.w3.org/1999/xlink">
    <!-- Generator: Sketch 40.3 (33839) - http://www.bohemiancoding.com/sketch -->
    <title>current/select image/assets/drag and drop/add-file</title>
    <desc>Created with Sketch.</desc>
    <defs></defs>
    <g id="Steps" stroke="none" stroke-width="1" fill="none" fill-rule="evenodd">
        <g id="current/select-image/drag-and-drop" transform="translate(-443.000000, -188.000000)" fill="#FFFFFF">
            <g id="default" transform="translate(62.000000, 55.000000)">
                <g id="drag-and-drop-overlay" transform="translate(20.000000, 50.000000)">
                    <g id="add-file-icon" transform="translate(361.000000, 83.000000)">
                        <path d="M28.2857143,0 L5.9952583,0 C2.69118038,0 0,2.68738348 0,6.00243901 L0,46.997561 C0,50.3171564 2.68416857,53 5.9952583,53 L36.0047417,53 C39.3088196,53 42,50.3126165 42,46.997561 L42,12.8225806 L34.2809726,12.8225806 C30.9698829,12.8225806 28.2857143,10.1397371 28.2857143,6.82014164 L28.2857143,-4.4408921e-16 Z M41.2707103,10.4394373 C41.6754269,10.8113822 41.5476202,11.1129032 41.0007477,11.1129032 L35.0036513,11.1129032 C32.240211,11.1129032 30,8.88050706 30,6.1135646 L30,1.07979782 C30,0.528379144 30.3335708,0.387926101 30.7328043,0.754831936 L41.2707103,10.4394373 Z M19.3366502,32.5938151 C19.3366502,33.690579 20.2389847,34.5904879 21.3387049,34.5904879 C22.4384251,34.5904879 23.3407596,33.690579 23.3407596,32.5938151 L23.3407596,29.3597676 L26.668118,29.3597676 C27.7396402,29.3597676 28.6137768,28.4879809 28.6137768,27.4193391 C28.6137768,26.3506973 27.7396402,25.4789106 26.668118,25.4789106 L23.3407596,25.4789106 L23.3407596,22.2448631 C23.3407596,21.1480992 22.4384251,20.2481903 21.3387049,20.2481903 C20.2389847,20.2481903 19.3366502,21.1480992 19.3366502,22.2448631 L19.3366502,25.4789106 L16.0092918,25.4789106 C14.9377696,25.4789106 14.063633,26.3506973 14.063633,27.4193391 C14.063633,28.4879809 14.9377696,29.3597676 16.0092918,29.3597676 L19.3366502,29.3597676 L19.3366502,32.5938151 Z" id="current/select-image/assets/drag-and-drop/add-file"></path>
                    </g>
                </g>
            </g>
        </g>
    </g>
</svg>
