<?xml version="1.0" encoding="utf-8"?>
<!-- Generator: Adobe Illustrator 22.1.0, SVG Export Plug-In . SVG Version: 6.00 Build 0)  -->
<svg version="1.1" xmlns="http://www.w3.org/2000/svg" xmlns:xlink="http://www.w3.org/1999/xlink" x="0px" y="0px"
	 viewBox="0 0 260.9 74" style="enable-background:new 0 0 260.9 74;" xml:space="preserve">
<style type="text/css">
	.st0{display:none;}
	.st1{display:inline;}
	.st2{fill:#FFFFFF;}
	.st3{fill:#FFC100;}
	.st4{fill:#F6EB61;}
	.st5{fill:#439879;}
	.st6{fill:#28CDFB;}
	.st7{fill:#FDD757;}
	.st8{fill:#EC8B00;}
</style>
<g id="type" class="st0">
	<text transform="matrix(1 0 0 1 264.4807 53.6223)" class="st1" style="font-family:'ITCAvantGardeStd-Bold'; font-size:46.2px;">Fin</text>
</g>
<g id="Ebene_1">
	<g>
		<path class="st2" d="M88.8,19.7h6.7v11.1h0.1c0.7-1,1.7-1.7,2.9-2.3c1.2-0.5,2.5-0.9,3.8-1.1c0.3,0,0.7-0.1,1-0.1
			c0.3,0,0.6,0,0.9,0c4.1,0,7.5,1.4,10.1,4.1c2.6,2.7,3.9,5.9,3.9,9.4c0,0.5,0,1.1-0.1,1.6c-0.1,0.6-0.2,1.1-0.4,1.7
			c-0.3,1.1-0.7,2.2-1.2,3.2c-0.5,1-1.2,2-1.9,2.7c-1.2,1.4-2.8,2.4-4.6,3.1c-1.8,0.7-3.7,1.1-5.6,1.1c-1.9,0-3.7-0.3-5.3-1
			c-1.6-0.7-3-1.7-4.1-3.2l-0.1,0v3.4h-6.2V19.7z M97.6,35.4c-1.7,1.4-2.5,3.1-2.5,5.2c0,2.2,0.8,4.1,2.3,5.6
			c1.5,1.5,3.6,2.3,6.1,2.3c2.4,0,4.3-0.7,5.8-2.2c1.5-1.4,2.2-3.2,2.2-5.4c0-2.1-0.7-3.9-2.2-5.4c-1.5-1.5-3.4-2.2-5.8-2.2
			C101.2,33.3,99.3,34,97.6,35.4z"/>
		<path class="st2" d="M150.3,53.6h-6.2v-3.4h-0.1c-0.8,1.1-1.9,2-3.3,2.7c-1.4,0.7-2.8,1.2-4.3,1.4c-0.3,0-0.6,0.1-0.9,0.1
			c-0.3,0-0.6,0-0.9,0c-2.2,0-4.1-0.4-5.8-1.1c-1.7-0.7-3.2-1.8-4.4-3.1c-1.1-1.2-2-2.6-2.6-4.2c-0.6-1.6-0.9-3.3-0.9-5
			c0-1.8,0.3-3.4,0.8-4.9c0.6-1.5,1.5-2.9,2.7-4.2c1.4-1.5,3-2.6,4.7-3.3c1.7-0.7,3.6-1.1,5.7-1.1c1.9,0,3.7,0.4,5.3,1.1
			c1.6,0.7,3,1.8,4.1,3.3v-3.6h6.2V53.6z M144,40.8c0-2.1-0.7-3.9-2.2-5.3c-1.5-1.5-3.4-2.2-5.8-2.1c-2.5,0-4.5,0.7-6,2.2
			c-1.6,1.5-2.3,3.4-2.3,5.6c0,2.1,0.8,3.8,2.4,5.2c1.6,1.4,3.6,2.1,5.8,2.1c2.4,0,4.4-0.7,5.9-2.2C143.2,44.9,144,43,144,40.8
			L144,40.8z"/>
		<path class="st2" d="M155.3,19.7h6.7v33.9h-6.7V19.7z"/>
		<path class="st2" d="M173.3,43.6c0.5,1.5,1.4,2.7,2.8,3.6c1.4,0.9,2.9,1.3,4.6,1.3c1.3,0,2.5-0.2,3.6-0.6c1.1-0.4,2-0.9,2.6-1.6
			l7.4,0c-0.8,2.3-2.5,4.2-5.1,5.8c-2.6,1.6-5.3,2.4-8.3,2.4c-4.1,0-7.5-1.3-10.4-3.9c-2.9-2.6-4.3-5.7-4.3-9.4c0-3.8,1.4-7,4.3-9.7
			c2.9-2.7,6.4-4,10.5-4c4,0,7.4,1.3,10.2,4c2.8,2.7,4.2,5.8,4.2,9.3c0,0.4,0,0.8-0.1,1.2c-0.1,0.4-0.1,0.8-0.2,1.1
			c0,0.1-0.1,0.2-0.1,0.3c0,0.1,0,0.2,0,0.3H173.3z M188.6,38.2c-0.5-1.5-1.5-2.7-2.9-3.5c-1.4-0.9-3-1.3-4.7-1.3
			c-0.1,0-0.1,0-0.2,0c-0.1,0-0.1,0-0.2,0c-1.6,0.1-3.1,0.6-4.5,1.4c-1.4,0.9-2.4,2-2.8,3.4H188.6z"/>
		<path class="st2" d="M199.7,28.2h6.2v2.3h0.1c0.8-0.9,1.8-1.7,3-2.2c1.3-0.5,2.6-0.8,4-0.9c0.1,0,0.2,0,0.3,0c0.1,0,0.2,0,0.3,0
			c0.1,0,0.3,0,0.4,0c0.1,0,0.3,0,0.4,0c1.3,0.1,2.6,0.4,3.9,1c1.3,0.5,2.3,1.3,3.3,2.2c0.1,0.1,0.3,0.2,0.4,0.3
			c0.1,0.1,0.2,0.2,0.3,0.4c1.1,1.4,1.7,2.8,1.9,4.4s0.3,3.1,0.3,4.8v13.1h-6.7v-12c0-0.4,0-0.8,0-1.2c0-0.4,0-0.9-0.1-1.3
			c-0.1-0.7-0.2-1.3-0.4-1.9c-0.2-0.6-0.4-1.2-0.8-1.7c-0.4-0.6-1-1.1-1.8-1.5c-0.8-0.4-1.5-0.6-2.3-0.6c0,0-0.1,0-0.1,0
			c-0.1,0-0.1,0-0.2,0c-0.1,0-0.2,0-0.3,0c-0.1,0-0.2,0-0.4,0c-0.8,0.1-1.5,0.3-2.3,0.7c-0.7,0.4-1.3,0.9-1.7,1.5
			c-0.3,0.5-0.6,1.1-0.8,1.7c-0.2,0.7-0.3,1.3-0.3,2c0,0.4,0,0.8,0,1.2c0,0.4,0,0.8,0,1.1c0,0.1,0,0.2,0,0.3c0,0.1,0,0.1,0,0.2v11.5
			h-6.7V28.2z"/>
		<path class="st2" d="M258.2,53.6H252v-3.4h-0.1c-0.8,1.1-1.9,2-3.3,2.7c-1.4,0.7-2.8,1.2-4.3,1.4c-0.3,0-0.6,0.1-0.9,0.1
			c-0.3,0-0.6,0-0.9,0c-2.2,0-4.1-0.4-5.8-1.1c-1.7-0.7-3.2-1.8-4.4-3.1c-1.1-1.2-2-2.6-2.6-4.2c-0.6-1.6-0.9-3.3-0.9-5
			c0-1.8,0.3-3.4,0.8-4.9c0.6-1.5,1.5-2.9,2.7-4.2c1.4-1.5,3-2.6,4.7-3.3c1.7-0.7,3.6-1.1,5.7-1.1c1.9,0,3.7,0.4,5.3,1.1
			c1.6,0.7,3,1.8,4.1,3.3v-3.6h6.2V53.6z M251.8,40.8c0-2.1-0.7-3.9-2.2-5.3c-1.5-1.5-3.4-2.2-5.8-2.1c-2.5,0-4.5,0.7-6,2.2
			c-1.6,1.5-2.3,3.4-2.3,5.6c0,2.1,0.8,3.8,2.4,5.2c1.6,1.4,3.6,2.1,5.8,2.1c2.4,0,4.4-0.7,5.9-2.2C251.1,44.9,251.8,43,251.8,40.8
			L251.8,40.8z"/>
	</g>
	<g>
		<path class="st3" d="M34.9,43.9v20.6c0.9-0.2,1.7-0.4,2.5-0.9l17.1-9.8c2.5-1.4,4-4.1,4-7V27.3c0-0.8-0.1-1.6-0.4-2.3L39.6,35.7
			C35.7,38.4,34.9,40.9,34.9,43.9z"/>
		<path class="st4" d="M64.9,21l-6.8,3.9c0.2,0.7,0.4,1.5,0.4,2.3v19.6c0,2.9-1.6,5.6-4,7l-17.1,9.8c-0.8,0.4-1.6,0.7-2.5,0.9v7.8
			c1.2-0.2,2.4-0.6,3.4-1.2l22.2-12.7c3.1-1.8,5-5.1,5-8.7V24.3C65.5,23.2,65.3,22.1,64.9,21z"/>
		<path class="st5" d="M33.3,37.4c1-1.6,2.5-3.1,4.7-4.4l18.7-10.8c-0.6-0.8-1.4-1.5-2.2-2l-17.1-9.8c-2.5-1.4-5.6-1.4-8.1,0
			l-17,9.8c-0.9,0.5-1.6,1.2-2.3,2L28.6,33C30.8,34.4,32.3,35.8,33.3,37.4z"/>
		<path class="st6" d="M12.3,20.3l17-9.8c2.5-1.4,5.6-1.4,8.1,0l17.1,9.8c0.9,0.5,1.6,1.2,2.2,2l6.8-3.9c-0.8-1.1-1.8-2-3-2.6
			L38.3,2.9c-3.1-1.8-6.9-1.8-10,0L6.3,15.7c-1.2,0.7-2.2,1.6-3,2.7l6.8,3.9C10.6,21.5,11.4,20.8,12.3,20.3z"/>
		<path class="st7" d="M29.3,63.6l-17-9.8c-2.5-1.4-4-4.1-4-7V27.2c0-0.8,0.1-1.5,0.3-2.2l-6.8-3.9c-0.4,1.1-0.6,2.1-0.6,3.2v25.5
			c0,3.6,1.9,6.9,5,8.6l22.1,12.7c1,0.6,2.2,1,3.4,1.2v-7.8C30.9,64.4,30.1,64.1,29.3,63.6z"/>
		<path class="st8" d="M27,35.6L8.6,25c-0.2,0.7-0.3,1.5-0.3,2.2v19.6c0,2.9,1.5,5.6,4,7l17,9.8c0.8,0.4,1.6,0.7,2.5,0.9V43.9
			C31.7,40.9,30.9,38.4,27,35.6z"/>
	</g>
</g>
</svg>
