<svg xmlns="http://www.w3.org/2000/svg" viewBox="0 0 260.9 74"><style>.st2{fill:#fff}</style><g id="Ebene_1"><path class="st2" d="M88.8 19.7h6.7v11.1h.1c.7-1 1.7-1.7 2.9-2.3 1.2-.5 2.5-.9 3.8-1.1.3 0 .7-.1 1-.1h.9c4.1 0 7.5 1.4 10.1 4.1 2.6 2.7 3.9 5.9 3.9 9.4 0 .5 0 1.1-.1 1.6-.1.6-.2 1.1-.4 1.7-.3 1.1-.7 2.2-1.2 3.2s-1.2 2-1.9 2.7c-1.2 1.4-2.8 2.4-4.6 3.1-1.8.7-3.7 1.1-5.6 1.1-1.9 0-3.7-.3-5.3-1-1.6-.7-3-1.7-4.1-3.2h-.1v3.4h-6.2V19.7zm8.8 15.7c-1.7 1.4-2.5 3.1-2.5 5.2 0 2.2.8 4.1 2.3 5.6 1.5 1.5 3.6 2.3 6.1 2.3 2.4 0 4.3-.7 5.8-2.2 1.5-1.4 2.2-3.2 2.2-5.4 0-2.1-.7-3.9-2.2-5.4-1.5-1.5-3.4-2.2-5.8-2.2-2.3 0-4.2.7-5.9 2.1zM150.3 53.6h-6.2v-3.4h-.1c-.8 1.1-1.9 2-3.3 2.7-1.4.7-2.8 1.2-4.3 1.4-.3 0-.6.1-.9.1h-.9c-2.2 0-4.1-.4-5.8-1.1-1.7-.7-3.2-1.8-4.4-3.1-1.1-1.2-2-2.6-2.6-4.2-.6-1.6-.9-3.3-.9-5 0-1.8.3-3.4.8-4.9.6-1.5 1.5-2.9 2.7-4.2 1.4-1.5 3-2.6 4.7-3.3 1.7-.7 3.6-1.1 5.7-1.1 1.9 0 3.7.4 5.3 1.1 1.6.7 3 1.8 4.1 3.3v-3.6h6.2v25.3zM144 40.8c0-2.1-.7-3.9-2.2-5.3-1.5-1.5-3.4-2.2-5.8-2.1-2.5 0-4.5.7-6 2.2-1.6 1.5-2.3 3.4-2.3 5.6 0 2.1.8 3.8 2.4 5.2 1.6 1.4 3.6 2.1 5.8 2.1 2.4 0 4.4-.7 5.9-2.2 1.4-1.4 2.2-3.3 2.2-5.5zM155.3 19.7h6.7v33.9h-6.7V19.7zM173.3 43.6c.5 1.5 1.4 2.7 2.8 3.6 1.4.9 2.9 1.3 4.6 1.3 1.3 0 2.5-.2 3.6-.6 1.1-.4 2-.9 2.6-1.6h7.4c-.8 2.3-2.5 4.2-5.1 5.8-2.6 1.6-5.3 2.4-8.3 2.4-4.1 0-7.5-1.3-10.4-3.9-2.9-2.6-4.3-5.7-4.3-9.4 0-3.8 1.4-7 4.3-9.7 2.9-2.7 6.4-4 10.5-4 4 0 7.4 1.3 10.2 4 2.8 2.7 4.2 5.8 4.2 9.3 0 .4 0 .8-.1 1.2-.1.4-.1.8-.2 1.1 0 .1-.1.2-.1.3v.3h-21.7zm15.3-5.4c-.5-1.5-1.5-2.7-2.9-3.5-1.4-.9-3-1.3-4.7-1.3h-.4c-1.6.1-3.1.6-4.5 1.4-1.4.9-2.4 2-2.8 3.4h15.3zM199.7 28.2h6.2v2.3h.1c.8-.9 1.8-1.7 3-2.2 1.3-.5 2.6-.8 4-.9h1.4c1.3.1 2.6.4 3.9 1 1.3.5 2.3 1.3 3.3 2.2.1.1.3.2.4.3.1.1.2.2.3.4 1.1 1.4 1.7 2.8 1.9 4.4s.3 3.1.3 4.8v13.1h-6.7v-12-1.2c0-.4 0-.9-.1-1.3-.1-.7-.2-1.3-.4-1.9-.2-.6-.4-1.2-.8-1.7-.4-.6-1-1.1-1.8-1.5-.8-.4-1.5-.6-2.3-.6h-1c-.8.1-1.5.3-2.3.7-.7.4-1.3.9-1.7 1.5-.3.5-.6 1.1-.8 1.7-.2.7-.3 1.3-.3 2v14.3h-6.7V28.2zM258.2 53.6H252v-3.4h-.1c-.8 1.1-1.9 2-3.3 2.7-1.4.7-2.8 1.2-4.3 1.4-.3 0-.6.1-.9.1h-.9c-2.2 0-4.1-.4-5.8-1.1-1.7-.7-3.2-1.8-4.4-3.1-1.1-1.2-2-2.6-2.6-4.2-.6-1.6-.9-3.3-.9-5 0-1.8.3-3.4.8-4.9.6-1.5 1.5-2.9 2.7-4.2 1.4-1.5 3-2.6 4.7-3.3 1.7-.7 3.6-1.1 5.7-1.1 1.9 0 3.7.4 5.3 1.1 1.6.7 3 1.8 4.1 3.3v-3.6h6.2v25.3zm-6.4-12.8c0-2.1-.7-3.9-2.2-5.3-1.5-1.5-3.4-2.2-5.8-2.1-2.5 0-4.5.7-6 2.2-1.6 1.5-2.3 3.4-2.3 5.6 0 2.1.8 3.8 2.4 5.2 1.6 1.4 3.6 2.1 5.8 2.1 2.4 0 4.4-.7 5.9-2.2 1.5-1.4 2.2-3.3 2.2-5.5z"/><g><path d="M34.9 43.9v20.6c.9-.2 1.7-.4 2.5-.9l17.1-9.8c2.5-1.4 4-4.1 4-7V27.3c0-.8-.1-1.6-.4-2.3L39.6 35.7c-3.9 2.7-4.7 5.2-4.7 8.2z" fill="#ffc100"/><path d="M64.9 21l-6.8 3.9c.2.7.4 1.5.4 2.3v19.6c0 2.9-1.6 5.6-4 7l-17.1 9.8c-.8.4-1.6.7-2.5.9v7.8c1.2-.2 2.4-.6 3.4-1.2l22.2-12.7c3.1-1.8 5-5.1 5-8.7V24.3c0-1.1-.2-2.2-.6-3.3z" fill="#f6eb61"/><path d="M33.3 37.4c1-1.6 2.5-3.1 4.7-4.4l18.7-10.8c-.6-.8-1.4-1.5-2.2-2l-17.1-9.8c-2.5-1.4-5.6-1.4-8.1 0l-17 9.8c-.9.5-1.6 1.2-2.3 2L28.6 33c2.2 1.4 3.7 2.8 4.7 4.4z" fill="#439879"/><path d="M12.3 20.3l17-9.8c2.5-1.4 5.6-1.4 8.1 0l17.1 9.8c.9.5 1.6 1.2 2.2 2l6.8-3.9c-.8-1.1-1.8-2-3-2.6L38.3 2.9c-3.1-1.8-6.9-1.8-10 0l-22 12.8c-1.2.7-2.2 1.6-3 2.7l6.8 3.9c.5-.8 1.3-1.5 2.2-2z" fill="#28cdfb"/><path d="M29.3 63.6l-17-9.8c-2.5-1.4-4-4.1-4-7V27.2c0-.8.1-1.5.3-2.2l-6.8-3.9c-.4 1.1-.6 2.1-.6 3.2v25.5c0 3.6 1.9 6.9 5 8.6l22.1 12.7c1 .6 2.2 1 3.4 1.2v-7.8c-.8-.1-1.6-.4-2.4-.9z" fill="#fdd757"/><path d="M27 35.6L8.6 25c-.2.7-.3 1.5-.3 2.2v19.6c0 2.9 1.5 5.6 4 7l17 9.8c.8.4 1.6.7 2.5.9V43.9c-.1-3-.9-5.5-4.8-8.3z" fill="#ec8b00"/></g></g></svg>