<svg xmlns="http://www.w3.org/2000/svg" viewBox="0 0 134.229 134.229"><g fill="#FFF"><path d="M21.343 112.528a4.192 4.192 0 014.195 4.189 4.199 4.199 0 01-4.195 4.201 4.2 4.2 0 01-4.199-4.201 4.192 4.192 0 014.199-4.189z"/><path d="M131.246 110.53L119.604 5.8c-.354-3.185-3.557-5.8-7.124-5.8H21.754c-3.568 0-6.777 2.615-7.127 5.8L2.984 110.53c0 .129-.061.232-.061.359v11.667c0 6.437 5.237 11.673 11.667 11.673h105.05c6.431 0 11.667-5.236 11.667-11.673v-11.667c0-.127-.061-.237-.061-.359zm-5.772 12.026c0 3.222-2.631 5.84-5.84 5.84H14.59c-3.206 0-5.836-2.618-5.836-5.84v-11.667c0-3.221 2.63-5.839 5.836-5.839h105.05c3.203 0 5.834 2.618 5.834 5.839v11.667z"/></g></svg>