<svg xmlns="http://www.w3.org/2000/svg" xmlns:xlink="http://www.w3.org/1999/xlink" width="184" height="21" viewBox="0 0 184 21">
    <defs>
        <path id="a" d="M.142.08h19.617v20.757H.142z"/>
    </defs>
    <g fill="none" fill-rule="evenodd">
        <path fill="#FFF" d="M101.91 16.648H93.32v-4.215h7.234c1.03 0 1.87-.86 1.87-1.95 0-1.089-.84-1.977-1.87-1.977h-7.234V4.435h8.454c1.03 0 1.869-.86 1.869-1.95 0-1.09-.84-1.978-1.87-1.978H91.263c-1.165 0-2.087.975-2.087 2.207v15.654c0 1.233.922 2.208 2.087 2.208h10.648c1.03 0 1.87-.86 1.87-1.95 0-1.09-.84-1.978-1.87-1.978M3.166 9.272H1.054C.468 9.272 0 9.77 0 10.387c0 .62.472 1.114 1.054 1.114h2.112c.586 0 1.054-.499 1.054-1.114 0-.62-.472-1.115-1.054-1.115M5.908 5.927c0 .62.472 1.115 1.054 1.115.587 0 1.055-.499 1.055-1.115 0-.62-.472-1.114-1.055-1.114-.586 0-1.054.499-1.054 1.114M6.499 1.622c0-.62-.473-1.115-1.056-1.115H1.647c-.582 0-1.056.499-1.056 1.115 0 .62.473 1.114 1.056 1.114h3.796c.582 0 1.056-.499 1.056-1.114"/>
        <path fill="#FFF" d="M32.581 16.648h-8.589v-4.215h7.235c1.03 0 1.87-.86 1.87-1.95 0-1.089-.84-1.977-1.87-1.977h-7.235V4.435h8.454c1.03 0 1.87-.86 1.87-1.95 0-1.09-.84-1.978-1.87-1.978h-12.6l.77.001H8.63c-.58 0-1.044.5-1.044 1.115 0 .62.467 1.116 1.044 1.116h6.74c.576.004 1.042.497 1.042 1.114 0 .616-.472 1.115-1.05 1.115H9.893c-.568 0-1.044.499-1.044 1.114 0 .62.467 1.115 1.044 1.115h7.15c.58 0 1.05.495 1.05 1.115 0 .616-.473 1.115-1.05 1.115H6.952c-.573 0-1.045.499-1.045 1.114 0 .62.468 1.115 1.045 1.115h6.308c.58 0 1.05.495 1.05 1.115 0 .616-.472 1.115-1.05 1.115H8.223c-.584 0-1.055.499-1.055 1.114 0 .62.473 1.115 1.055 1.115H15.66c.58 0 1.05.495 1.05 1.115 0 .616-.473 1.115-1.05 1.115h-1.557c-.579 0-1.052.499-1.052 1.114 0 .62.422 1.078 1.052 1.117.618.038 6.31 0 6.504-.002l11.974.002c1.03 0 1.87-.86 1.87-1.95 0-1.09-.84-1.978-1.87-1.978M117.386 7.416c0 1.692-1.165 2.838-3.197 2.838h-4.227V4.492h4.146c2.032 0 3.278.975 3.278 2.867v.057zm.434 5.877c2.303-1.003 3.793-2.953 3.793-6.106 0-1.95-.57-3.527-1.626-4.645-1.246-1.318-3.116-2.035-5.527-2.035h-6.584c-1.165 0-2.086.975-2.086 2.207V18.54c0 1.233.92 2.208 2.086 2.208 1.165 0 2.086-.975 2.086-2.208v-4.386h3.333l4.064 5.447c.488.66 1.111 1.147 2.06 1.147a1.995 1.995 0 0 0 1.977-2.036c0-.688-.27-1.147-.677-1.691l-2.9-3.728zM84.077.335c-1.166 0-2.087.974-2.087 2.207v5.906h-7.695V2.542c0-1.233-.92-2.207-2.086-2.207-1.165 0-2.086.974-2.086 2.207V18.54c0 1.233.921 2.208 2.086 2.208 1.165 0 2.086-.975 2.086-2.208v-6.02h7.695v6.02c0 1.233.921 2.208 2.087 2.208 1.165 0 2.086-.975 2.086-2.208V2.542c0-1.233-.921-2.207-2.086-2.207M49.06.507H36.867c-1.056 0-1.924.917-1.924 2.035s.868 2.036 1.924 2.036h4.01V18.54c0 1.233.922 2.208 2.087 2.208s2.086-.975 2.086-2.208V4.578h4.01c1.057 0 1.924-.918 1.924-2.036 0-1.118-.867-2.035-1.924-2.035M66.053 14.784c-.487 0-.92.201-1.246.488-1.192 1.003-2.357 1.577-4.118 1.577-3.252 0-5.5-2.867-5.5-6.308 0-3.498 2.303-6.307 5.5-6.307 1.49 0 2.71.516 3.874 1.433.298.201.678.43 1.247.43 1.138 0 2.059-.946 2.059-2.15 0-.774-.38-1.405-.813-1.749C65.485.965 63.561.163 60.716.163c-5.826 0-9.89 4.673-9.89 10.378 0 5.82 4.146 10.379 9.727 10.379 3.035 0 5.04-.946 6.747-2.523.38-.344.704-.89.704-1.577 0-1.118-.894-2.036-1.95-2.036"/>
        <path fill="#F6C231" d="M149.32 10.232c1.73 0 3.427.038 5.123-.013 1.14-.034 2.105-1.008 2.287-2.159.274-1.728-.89-3.199-2.56-3.213-1.545-.012-3.091-.003-4.637-.001-.072 0-.143.016-.213.024v5.362zm8.411 3.408c.954 1.102 1.902 2.2 2.853 3.296.726.836.844 1.836.32 2.74-.653 1.126-2.198 1.399-3.09.478-.87-.898-1.667-1.876-2.492-2.823-.735-.844-1.463-1.696-2.202-2.537-.074-.085-.2-.168-.301-.17-1.133-.011-2.265-.006-3.398-.005-.026 0-.053.01-.115.024v.314c0 1.139.01 2.277-.003 3.416-.013 1.197-.767 2.081-1.862 2.214-1.078.132-2.118-.747-2.228-1.889a7.745 7.745 0 0 1-.037-.746c-.003-5.033-.002-10.066-.002-15.099 0-.955.332-1.722 1.174-2.141.297-.147.651-.227.98-.23 2.303-.02 4.605-.024 6.908-.006 3.197.025 5.877 2.283 6.524 5.608.5 2.566-.168 4.819-1.988 6.641-.32.32-.679.599-1.04.915z"/>
        <g transform="translate(163.389 .082)">
            <mask id="b" fill="#fff">
                <use xlink:href="#a"/>
            </mask>
            <path fill="#F6C231" d="M15.629 10.449c0-3.297-2.554-5.999-5.67-5.997-3.13.002-5.674 2.682-5.682 5.985-.008 3.329 2.514 6.006 5.671 6.02 3.132.015 5.68-2.68 5.681-6.008m4.13.014c.012 5.79-4.456 10.385-9.823 10.374C4.39 20.826.107 15.987.142 10.424.177 4.709 4.617.036 9.988.08c5.418.045 9.804 4.706 9.77 10.382" mask="url(#b)"/>
        </g>
        <path fill="#F6C231" d="M130.836 10.246h1.46c1.207-.003 2.415.033 3.62-.019 1.678-.071 2.79-1.82 2.274-3.505-.346-1.131-1.296-1.867-2.458-1.875-1.575-.01-3.15-.003-4.724-.002-.054 0-.107.01-.172.016v5.385zm-.014 4.37v3.698c0 .944-.384 1.65-1.188 2.075-1.224.648-2.764-.25-2.905-1.69a7.638 7.638 0 0 1-.037-.745c-.002-5.032-.001-10.063-.002-15.094 0-.954.327-1.724 1.169-2.145.296-.148.65-.23.978-.233 2.321-.02 4.642-.028 6.963-.005 3.227.031 5.931 2.397 6.535 5.749.744 4.128-2.016 7.866-5.714 8.328a8.5 8.5 0 0 1-1.015.06c-1.482.007-2.963.003-4.444.003h-.34z"/>
    </g>
</svg>
