<?xml version="1.0" encoding="utf-8"?>
<!-- Generator: Adobe Illustrator 21.0.0, SVG Export Plug-In . SVG Version: 6.00 Build 0)  -->
<svg version="1.1" id="Layer_1" xmlns="http://www.w3.org/2000/svg" xmlns:xlink="http://www.w3.org/1999/xlink" x="0px" y="0px"
	 viewBox="0 0 41 41" style="enable-background:new 0 0 41 41;" xml:space="preserve">
<g>
	<path fill="#FFFFFF" d="M20.5,0C9.2,0,0,9.2,0,20.5S9.2,41,20.5,41S41,31.8,41,20.5S31.8,0,20.5,0z M20.5,29c-4.7,0-8.5-3.8-8.5-8.5
		c0-4.7,3.8-8.5,8.5-8.5c4.7,0,8.5,3.8,8.5,8.5C29,25.2,25.2,29,20.5,29z"/>
	<path fill="#FFFFFF" d="M20.5,12.6c-4.3,0-7.9,3.5-7.9,7.9s3.5,7.9,7.9,7.9s7.9-3.5,7.9-7.9S24.8,12.6,20.5,12.6z M20.5,25
		C18,25,16,23,16,20.5s2-4.5,4.5-4.5s4.5,2,4.5,4.5S23,25,20.5,25z"/>
</g>
</svg>
