<svg viewBox="0 0 21 23" xmlns="http://www.w3.org/2000/svg"><path d="M21 7.516v7.972c0 1.26-.675 2.425-1.775 3.053l-6.947 3.988c-1.1.628-2.451.628-3.55 0L1.78 18.541A3.52 3.52 0 010 15.488V7.516c0-1.26.68-2.425 1.78-3.053L8.727.475a3.558 3.558 0 013.55 0l6.948 3.988A3.515 3.515 0 0121 7.516zm-11.734 7.88a1.22 1.22 0 001.234 1.235c.671 0 1.234-.541 1.234-1.234v-3.01h3.075c.65 0 1.191-.52 1.191-1.191 0-.65-.541-1.191-1.19-1.191h-3.076v-3.01c0-.693-.563-1.234-1.234-1.234a1.22 1.22 0 00-1.234 1.234v3.01H6.19c-.65 0-1.191.541-1.191 1.19 0 .672.541 1.192 1.19 1.192h3.076v3.01z" fill-rule="nonzero" fill="#FFF"/></svg>