<?xml version="1.0" encoding="utf-8"?>
<!-- Generator: Adobe Illustrator 16.0.0, SVG Export Plug-In . SVG Version: 6.00 Build 0)  -->
<!DOCTYPE svg PUBLIC "-//W3C//DTD SVG 1.1//EN" "http://www.w3.org/Graphics/SVG/1.1/DTD/svg11.dtd">
<svg version="1.1" id="Layer_1" xmlns="http://www.w3.org/2000/svg" xmlns:xlink="http://www.w3.org/1999/xlink" x="0px" y="0px"
	 width="500px" height="500px" viewBox="0 0 500 500" enable-background="new 0 0 500 500" xml:space="preserve">
<g>
	<defs>
		<rect id="SVGID_1_" width="500" height="500"/>
	</defs>
	<clipPath id="SVGID_2_">
		<use xlink:href="#SVGID_1_"  overflow="visible"/>
	</clipPath>
	<g clip-path="url(#SVGID_2_)">
		<defs>
			<rect id="SVGID_3_" x="33" y="200" width="95.999" height="72"/>
		</defs>
		<clipPath id="SVGID_4_">
			<use xlink:href="#SVGID_3_"  overflow="visible"/>
		</clipPath>
	</g>
	<g clip-path="url(#SVGID_2_)">
		<defs>
			<rect id="SVGID_5_" width="500" height="500"/>
		</defs>
		<clipPath id="SVGID_6_">
			<use xlink:href="#SVGID_5_"  overflow="visible"/>
		</clipPath>
		<path clip-path="url(#SVGID_6_)" fill="#B4524E" d="M323.256,118.248c-7.463,1.92-25.244-48.98-31.272-45.966
			c-6.027,3.014-12.061,17.18-12.061,17.18c-2.296-5.247-8.414-19.247-15.111-14.762c-8.691,5.821-18.794,34.243-18.794,46.562
			c0,16.685-16.705,52.119-16.705,52.119s-32.275,89.924-14.567,75.23s38.75-0.979,48.227,7.158
			c9.262,7.954,19.281,18.839,39.561,18.839c6.18,0,23.919-3.762,24.059-13.203c0.385-25.997,10.668-47.457,10.668-47.457
			s7.849-0.377,39.498-3.391c31.647-3.014,40.313-23.737,40.313-23.737s15.824-16.201-10.926-24.113
			c-39.871-11.793-45.59-16.201-45.59-16.201c-21.813-39.382-57.269-32.779-57.269-32.779c-5.275,0.094-10.021,0.406-14.285,0.88
			c-29.856,3.317-36.202,14.567-36.202,14.567"/>
	</g>
	<g clip-path="url(#SVGID_2_)">
		<defs>
			<rect id="SVGID_7_" width="500" height="500"/>
		</defs>
		<clipPath id="SVGID_8_">
			<use xlink:href="#SVGID_7_"  overflow="visible"/>
		</clipPath>
		<path clip-path="url(#SVGID_8_)" fill="#414042" d="M402.018,161.475c0,0-6.315,13.193,15.055,25.345
			C417.072,186.82,434.913,169.596,402.018,161.475"/>
	</g>
	<g clip-path="url(#SVGID_2_)">
		<defs>
			<rect id="SVGID_9_" width="500" height="500"/>
		</defs>
		<clipPath id="SVGID_10_">
			<use xlink:href="#SVGID_9_"  overflow="visible"/>
		</clipPath>
		<path clip-path="url(#SVGID_10_)" fill="#414042" d="M314.48,150c0,0,25.571-11.71,27.808,11.475c0,0-4.894-1.325-9.84,0
			C327.9,162.694,319.769,164.088,314.48,150"/>
	</g>
	<g clip-path="url(#SVGID_2_)">
		<defs>
			<rect id="SVGID_11_" width="500" height="500"/>
		</defs>
		<clipPath id="SVGID_12_">
			<use xlink:href="#SVGID_11_"  overflow="visible"/>
		</clipPath>
		<path clip-path="url(#SVGID_12_)" fill="#414042" d="M251.347,126.788c0,0-1.355-7.561,0.373-16.199
			c3.195-15.97,15.72-38.745,21.052-33.694c6.595,6.247,8.882,9.374,11.84,38.28C284.611,115.175,266.973,114.52,251.347,126.788"/>
	</g>
	<g clip-path="url(#SVGID_2_)">
		<defs>
			<rect id="SVGID_13_" width="500" height="500"/>
		</defs>
		<clipPath id="SVGID_14_">
			<use xlink:href="#SVGID_13_"  overflow="visible"/>
		</clipPath>
		<path clip-path="url(#SVGID_14_)" fill="#414042" d="M289.002,114.606c0,0-4.391-37.918,6.812-39.907
			c1.241-0.029,21.279,39.188,22.009,39.358C319.255,114.391,305.04,112.096,289.002,114.606"/>
	</g>
	<g clip-path="url(#SVGID_2_)">
		<defs>
			<rect id="SVGID_15_" width="500" height="500"/>
		</defs>
		<clipPath id="SVGID_16_">
			<use xlink:href="#SVGID_15_"  overflow="visible"/>
		</clipPath>
		<path clip-path="url(#SVGID_16_)" fill="#414042" d="M230.564,170.025c0,0,9.916,69.551,21.785,78.189
			c0,0-21.844-12.267-40.101,2.448C212.249,250.662,195.463,253.019,230.564,170.025"/>
	</g>
	<g clip-path="url(#SVGID_2_)">
		<defs>
			<rect id="SVGID_17_" width="500" height="500"/>
		</defs>
		<clipPath id="SVGID_18_">
			<use xlink:href="#SVGID_17_"  overflow="visible"/>
		</clipPath>
		<g opacity="0.66" clip-path="url(#SVGID_18_)">
			<g>
				<defs>
					<rect id="SVGID_19_" x="230.448" y="128.085" width="95.562" height="146.66"/>
				</defs>
				<clipPath id="SVGID_20_">
					<use xlink:href="#SVGID_19_"  overflow="visible"/>
				</clipPath>
				<path clip-path="url(#SVGID_20_)" fill="#6D6E71" d="M245.323,128.084c0,0,10.352,146.523,80.688,136.054
					c0,0-2.842,8.869-23.478,10.469c0,0-17.343,2.498-33.832-13.822c0,0-14.934-12.027-16.352-12.571c0,0-8.428-5.299-13.223-33.004
					c0,0-9.856-42.309-8.562-45.185C230.565,170.025,245.213,132.32,245.323,128.084"/>
			</g>
		</g>
	</g>
	<g clip-path="url(#SVGID_2_)">
		<defs>
			<rect id="SVGID_21_" width="500" height="500"/>
		</defs>
		<clipPath id="SVGID_22_">
			<use xlink:href="#SVGID_21_"  overflow="visible"/>
		</clipPath>
		<path clip-path="url(#SVGID_22_)" fill="#414042" d="M290.881,203.99c0,0,35.812,14.514,46.378,9.958
			c0,0-4.244,10.385-5.062,13.561c0,0-1.883,6.716-2.447,9.066C329.75,236.575,294.767,242.959,290.881,203.99"/>
	</g>
	<g clip-path="url(#SVGID_2_)">
		<defs>
			<rect id="SVGID_23_" width="500" height="500"/>
		</defs>
		<clipPath id="SVGID_24_">
			<use xlink:href="#SVGID_23_"  overflow="visible"/>
		</clipPath>
		<path clip-path="url(#SVGID_24_)" fill="#58595B" d="M290.881,203.99c0,0,2.6,31.459,38.869,32.585c0,0-2.756,14.276-2.78,17.334
			C326.97,253.909,274.895,256.249,290.881,203.99"/>
	</g>
	<g clip-path="url(#SVGID_2_)">
		<defs>
			<rect id="SVGID_25_" width="500" height="500"/>
		</defs>
		<clipPath id="SVGID_26_">
			<use xlink:href="#SVGID_25_"  overflow="visible"/>
		</clipPath>
		<g opacity="0.26" clip-path="url(#SVGID_26_)">
			<g>
				<defs>
					<rect id="SVGID_27_" x="290.881" y="200" width="114.958" height="14.965"/>
				</defs>
				<clipPath id="SVGID_28_">
					<use xlink:href="#SVGID_27_"  overflow="visible"/>
				</clipPath>
				<path clip-path="url(#SVGID_28_)" fill="#C49A6C" d="M405.839,200c0,0-79.677,5.771-114.957,3.99c0,0,36.06,14.939,46.378,9.958
					c0,0,39.932-2.938,45.848-4.28C383.107,209.668,395.562,208.15,405.839,200"/>
			</g>
		</g>
		<path clip-path="url(#SVGID_26_)" fill="#B4524E" d="M213.851,149.763c-7.463,1.92-25.244-48.98-31.272-45.966
			c-6.028,3.014-12.061,17.18-12.061,17.18c-2.296-5.247-8.414-19.247-15.111-14.762c-8.692,5.821-18.794,34.243-18.794,46.562
			c0,16.685-16.705,52.119-16.705,52.119s-32.275,89.924-14.567,75.229c17.708-14.693,38.749-0.979,48.227,7.158
			c9.262,7.954,19.281,18.839,39.561,18.839c6.179,0,23.918-3.762,24.058-13.204c0.385-25.995,10.668-47.456,10.668-47.456
			s7.849-0.377,39.497-3.391c31.649-3.014,40.315-23.737,40.315-23.737s15.824-16.201-10.926-24.113
			c-39.871-11.793-45.59-16.201-45.59-16.201c-21.814-39.382-57.27-32.779-57.27-32.779c-5.275,0.094-10.02,0.406-14.285,0.88
			c-29.856,3.317-36.202,14.567-36.202,14.567"/>
		<path clip-path="url(#SVGID_26_)" fill="#414042" d="M292.612,192.991c0,0-6.314,13.193,15.055,25.345
			C307.667,218.336,325.509,201.112,292.612,192.991"/>
		<path clip-path="url(#SVGID_26_)" fill="#414042" d="M205.076,181.516c0,0,25.571-11.71,27.807,11.475c0,0-4.893-1.325-9.839,0
			C218.496,194.209,210.364,195.604,205.076,181.516"/>
		<path clip-path="url(#SVGID_26_)" fill="#414042" d="M141.942,158.303c0,0-1.356-7.561,0.373-16.199
			c3.195-15.97,15.719-38.745,21.051-33.694c6.595,6.247,8.882,9.374,11.84,38.28C175.207,146.69,157.568,146.036,141.942,158.303"
			/>
		<path clip-path="url(#SVGID_26_)" fill="#414042" d="M179.597,146.122c0,0-4.391-37.918,6.812-39.907
			c1.241-0.029,21.279,39.188,22.008,39.358C209.85,145.906,195.635,143.611,179.597,146.122"/>
		<path clip-path="url(#SVGID_26_)" fill="#414042" d="M121.16,201.541c0,0,9.916,69.551,21.785,78.189
			c0,0-21.844-12.268-40.101,2.447C102.844,282.178,86.058,284.534,121.16,201.541"/>
		<path clip-path="url(#SVGID_26_)" fill="#6D6E71" d="M135.918,159.6c0,0,10.352,146.523,80.688,136.054
			c0,0-2.842,8.869-23.478,10.469c0,0-17.343,2.498-33.832-13.822c0,0-14.934-12.026-16.351-12.57c0,0-8.428-5.3-13.223-33.004
			c0,0-9.856-42.309-8.562-45.185C121.16,201.541,135.809,163.836,135.918,159.6"/>
		<path clip-path="url(#SVGID_26_)" fill="#414042" d="M181.477,235.505c0,0,35.812,14.514,46.378,9.958
			c0,0-2.83,10.441-3.646,13.617c0,0-0.445,9.865-1.008,12.217C223.201,271.297,185.362,274.475,181.477,235.505"/>
		<path clip-path="url(#SVGID_26_)" fill="#58595B" d="M181.477,235.505c0,0,4.219,32.145,40.489,33.272
			c0,0-4.376,13.589-4.4,16.647C217.565,285.425,165.49,287.765,181.477,235.505"/>
		<g opacity="0.26" clip-path="url(#SVGID_26_)">
			<g>
				<defs>
					<rect id="SVGID_29_" x="181.477" y="231.516" width="114.957" height="14.964"/>
				</defs>
				<clipPath id="SVGID_30_">
					<use xlink:href="#SVGID_29_"  overflow="visible"/>
				</clipPath>
				<path clip-path="url(#SVGID_30_)" fill="#C49A6C" d="M296.434,231.516c0,0-79.676,5.771-114.957,3.99
					c0,0,36.06,14.938,46.378,9.958c0,0,39.932-2.938,45.848-4.28C273.703,241.184,286.158,239.666,296.434,231.516"/>
			</g>
		</g>
		<path clip-path="url(#SVGID_26_)" fill="#B4524E" d="M301.187,247.389c-7.463,1.92-25.244-48.98-31.272-45.966
			c-6.027,3.014-12.061,17.18-12.061,17.18c-2.296-5.247-8.414-19.247-15.111-14.762c-8.692,5.821-18.496,34.246-18.794,46.562
			c-0.496,20.469-16.905,53.646-16.705,52.119c0,0-32.275,89.924-14.567,75.23c17.708-14.694,38.749-0.979,48.227,7.157
			c9.262,7.954,19.281,18.84,39.562,18.84c6.179,0,23.918-3.763,24.058-13.204c0.385-25.996,10.668-47.456,10.668-47.456
			s7.849-0.377,39.498-3.392c31.647-3.014,40.313-23.736,40.313-23.736s15.824-16.201-10.926-24.113
			c-39.871-11.793-45.59-16.201-45.59-16.201c-21.813-39.382-57.269-32.779-57.269-32.779c-5.275,0.094-10.021,0.406-14.285,0.88
			c-29.856,3.317-36.202,14.567-36.202,14.567"/>
		<path clip-path="url(#SVGID_26_)" fill="#414042" d="M379.947,290.616c0,0-6.314,13.193,15.056,25.345
			C395.003,315.961,412.844,298.737,379.947,290.616"/>
		<path clip-path="url(#SVGID_26_)" fill="#414042" d="M292.411,279.141c0,0,25.571-11.71,27.808,11.476c0,0-4.894-1.325-9.84,0
			C305.831,291.835,297.699,293.229,292.411,279.141"/>
		<path clip-path="url(#SVGID_26_)" fill="#414042" d="M229.278,255.929c0,0-1.356-7.561,0.373-16.199
			c3.195-15.97,15.719-38.745,21.051-33.694c6.595,6.247,8.882,9.374,11.84,38.28C262.542,244.315,244.904,243.661,229.278,255.929"
			/>
		<path clip-path="url(#SVGID_26_)" fill="#414042" d="M266.933,243.748c0,0-4.391-37.918,6.812-39.907
			c1.241-0.029,21.279,39.188,22.009,39.358C297.186,243.532,282.971,241.236,266.933,243.748"/>
		<path clip-path="url(#SVGID_26_)" fill="#414042" d="M207.244,301.436c0.539,1.67,29.329,83.898,40.028,88.908
			c0,0-38.306-26.341-56.563-11.626C190.709,378.718,172.142,384.429,207.244,301.436"/>
		<path clip-path="url(#SVGID_26_)" fill="#414042" d="M268.812,333.131c0,0,35.812,14.514,46.378,9.958
			c0,0-4.244,10.385-5.062,13.561c0,0-1.883,6.716-2.447,9.066C307.681,365.716,272.697,372.1,268.812,333.131"/>
		<path clip-path="url(#SVGID_26_)" fill="#58595B" d="M268.812,333.131c0,0,2.6,31.459,38.869,32.585c0,0-2.756,14.276-2.78,17.334
			C304.9,383.05,252.825,385.39,268.812,333.131"/>
		<g opacity="0.26" clip-path="url(#SVGID_26_)">
			<g>
				<defs>
					<rect id="SVGID_31_" x="268.812" y="329.141" width="114.956" height="14.965"/>
				</defs>
				<clipPath id="SVGID_32_">
					<use xlink:href="#SVGID_31_"  overflow="visible"/>
				</clipPath>
				<path clip-path="url(#SVGID_32_)" fill="#C49A6C" d="M383.77,329.141c0,0-79.677,5.771-114.957,3.99
					c0,0,36.06,14.938,46.378,9.958c0,0,39.932-2.938,45.848-4.28C361.038,338.809,373.493,337.291,383.77,329.141"/>
			</g>
		</g>
	</g>
	<g clip-path="url(#SVGID_2_)">
		<defs>
			<rect id="SVGID_33_" width="500" height="500"/>
		</defs>
		<clipPath id="SVGID_34_">
			<use xlink:href="#SVGID_33_"  overflow="visible"/>
		</clipPath>
		<path clip-path="url(#SVGID_34_)" fill="#414042" d="M100.033,280.212c0,0,35.574,87.822,91.893,100.047l1.659-20.618
			l12.589-41.053l1.07-17.152c0,0-36.461,0.755-54.732-15.52c0,0-3.867-2.304-9.567-6.186c-5.7-3.883-40.041-13.04-39.126-3.32
			c0.915,9.72-1.43-1.802-1.43-1.802L100.033,280.212z"/>
	</g>
	<g clip-path="url(#SVGID_2_)">
		<defs>
			<rect id="SVGID_35_" width="500" height="500"/>
		</defs>
		<clipPath id="SVGID_36_">
			<use xlink:href="#SVGID_35_"  overflow="visible"/>
		</clipPath>
		<path clip-path="url(#SVGID_36_)" fill="#414042" d="M267.36,411.034l14.359-9.782c0,0-31.568,5.384-46.196-28.827
			c-14.628-34.211-21.884-13.501-21.884-13.501l-7.017,17.715l16.334,27.953l33.015,8.743L267.36,411.034z"/>
	</g>
	<g clip-path="url(#SVGID_2_)">
		<defs>
			<rect id="SVGID_37_" width="500" height="500"/>
		</defs>
		<clipPath id="SVGID_38_">
			<use xlink:href="#SVGID_37_"  overflow="visible"/>
		</clipPath>
		<path clip-path="url(#SVGID_38_)" fill="#6D6E71" d="M120.889,202.763c0,0,14.283,154.348,86.743,99.301l-5.617-2.81
			l-13.481-2.247l-12.919-8.706l-18.537-27.829l-19.94-37.891L120.889,202.763z"/>
	</g>
	<g clip-path="url(#SVGID_2_)">
		<defs>
			<rect id="SVGID_39_" width="500" height="500"/>
		</defs>
		<clipPath id="SVGID_40_">
			<use xlink:href="#SVGID_39_"  overflow="visible"/>
		</clipPath>
		<path clip-path="url(#SVGID_40_)" fill="#414042" d="M100.557,260.473c0,0-36.025,134.503-5.167,124.912
			c0,0,67.136-11.676,108.419,20.016c0,0,81.58,62.093,100.628-13.877c-2.771,11.521-84.653,25.267-95-23.652
			c-8.582-40.576-66.493-51.91-66.493-51.91L100.557,260.473z"/>
	</g>
</g>
</svg>
