<svg xmlns="http://www.w3.org/2000/svg" width="16" height="16" viewBox="0 0 16 16">
    <path fill="#D3D6DB" fill-rule="evenodd" stroke="#D3D6DB" stroke-linecap="round" d="M5.313 1.002a.173.173 0 0 0-.038.01C2.559 2.02 1 4.642 1 7.686a7.12 7.12 0 0 0 7.116 7.116c3.044 0 5.667-1.565 6.673-4.28a.173.173 0 0 0-.226-.221c-.77.309-1.607.468-2.49.468-3.686 0-7.046-3.354-7.046-7.04 0-.883.16-1.72.469-2.49a.173.173 0 0 0-.183-.237zm-.248.49a7.033 7.033 0 0 0-.383 2.237c0 3.894 3.497 7.386 7.39 7.386.786 0 1.53-.147 2.237-.383-1.04 2.362-3.399 3.725-6.193 3.725-3.741 0-6.771-3.03-6.771-6.77 0-2.794 1.36-5.154 3.72-6.195z"/>
</svg>
