<?xml version="1.0" encoding="UTF-8"?>
<svg version="1.1" viewBox="0 0 39 90" xmlns="http://www.w3.org/2000/svg">
<g fill="none" fill-rule="evenodd">
<g transform="translate(-380 -166)">
<g transform="translate(380 166)">
<path d="m30.88 39.87h-23.363v23.209c0 0.6909 0.56062 1.251 1.251 1.251h20.861c0.69114 0 1.251-0.55986 1.251-1.251v-23.209zm-22.363 0.9999h21.363l4e-4 22.209c0 0.13886-0.11214 0.251-0.251 0.251h-20.861l-0.057452-0.0066403c-0.11075-0.026055-0.19355-0.12572-0.19355-0.24436l-4e-4 -22.209z" fill="#2A506F" fill-rule="nonzero"/>
<path d="m16.558 48.924h-3.967c-0.58314 0-1.055 0.47186-1.055 1.055v2.732c0 0.58235 0.47206 1.055 1.055 1.055h3.967c0.58223 0 1.054-0.47295 1.054-1.055v-2.732c0-0.58285-0.47156-1.055-1.054-1.055zm-3.967 1h3.967c0.029872 0 0.054 0.024158 0.054 0.055v2.732c0 0.030327-0.024612 0.055-0.054 0.055h-3.967c-0.030373 0-0.055-0.024658-0.055-0.055v-2.732c0-0.030858 0.024142-0.055 0.055-0.055z" fill="#2A506F" fill-rule="nonzero"/>
<path d="m25.97 48.924h-3.967c-0.58314 0-1.055 0.47186-1.055 1.055v2.732c0 0.58235 0.47206 1.055 1.055 1.055h3.967c0.58223 0 1.054-0.47295 1.054-1.055v-2.732c0-0.58285-0.47156-1.055-1.054-1.055zm-3.967 1h3.967c0.029872 0 0.054 0.024158 0.054 0.055v2.732c0 0.030327-0.024612 0.055-0.054 0.055h-3.967c-0.030373 0-0.055-0.024658-0.055-0.055v-2.732c0-0.030858 0.024142-0.055 0.055-0.055z" fill="#2A506F" fill-rule="nonzero"/>
<path d="m37.398 5.418v30.534c0 2.43-1.988 4.418-4.418 4.418h-27.562c-2.43 0-4.418-1.988-4.418-4.418v-30.534c0-2.43 1.988-4.418 4.418-4.418h27.562c2.43 0 4.418 1.988 4.418 4.418" fill="#2A506F"/>
<path d="m32.98-5.6843e-14h-27.562c-2.9823 0-5.418 2.4357-5.418 5.418v30.534c0 2.9823 2.4357 5.418 5.418 5.418h27.562c2.9823 0 5.418-2.4357 5.418-5.418v-30.534c0-2.9823-2.4357-5.418-5.418-5.418zm-27.562 2h27.562c1.8777 0 3.418 1.5403 3.418 3.418v30.534c0 1.8777-1.5403 3.418-3.418 3.418h-27.562c-1.8777 0-3.418-1.5403-3.418-3.418v-30.534c0-1.8777 1.5403-3.418 3.418-3.418z" fill="#2A506F" fill-rule="nonzero"/>
<path d="m19.147 73.551c0.24546 0 0.44961 0.17688 0.49194 0.41012l0.0080557 0.089876v14.882c0 0.27614-0.22386 0.5-0.5 0.5-0.24546 0-0.44961-0.17688-0.49194-0.41012l-0.0080557-0.089876v-14.882c0-0.27614 0.22386-0.5 0.5-0.5z" fill="#2A506F" fill-rule="nonzero"/>
<line x1="19.147" x2="14.532" y1="88.933" y2="84.214" stroke="#2A506F" stroke-linecap="round"/>
<line x1="19.147" x2="23.866" y1="88.933" y2="84.318" stroke="#2A506F" stroke-linecap="round"/>
<path d="m14.007 26.177c0.51076 0 0.96749-0.071211 1.3702-0.21363s0.74649-0.33887 1.0313-0.58934 0.50339-0.54268 0.65564-0.87664 0.22837-0.69247 0.22837-1.0755c0-0.3536-0.051567-0.66546-0.1547-0.93557s-0.2431-0.50585-0.4199-0.7072-0.38798-0.37816-0.63354-0.5304-0.50585-0.2873-0.78087-0.40517l-1.3702-0.58934c-0.19645-0.078578-0.38798-0.16452-0.5746-0.25783s-0.35851-0.20136-0.51567-0.32413-0.28239-0.2652-0.3757-0.42727-0.13997-0.36097-0.13997-0.5967c0-0.442 0.16452-0.78824 0.49357-1.0387s0.76368-0.3757 1.3039-0.3757c0.45182 0 0.85699 0.081034 1.2155 0.2431s0.6851 0.38552 0.97977 0.67037l0.663-0.7956c-0.34378-0.3536-0.76123-0.6409-1.2523-0.8619s-1.0264-0.3315-1.6059-0.3315c-0.442 0-0.84717 0.063845-1.2155 0.19153s-0.68756 0.30695-0.95767 0.53777-0.48129 0.50339-0.63354 0.8177-0.22837 0.65318-0.22837 1.0166c0 0.3536 0.058934 0.66546 0.1768 0.93557s0.27011 0.50339 0.45674 0.69984 0.3978 0.36342 0.63354 0.50094 0.46656 0.25538 0.69247 0.3536l1.3849 0.60407c0.22591 0.10804 0.43709 0.21118 0.63354 0.3094s0.36588 0.20872 0.5083 0.3315 0.25538 0.27011 0.33887 0.442 0.12523 0.38061 0.12523 0.62617c0 0.47147-0.1768 0.85208-0.5304 1.1418s-0.84963 0.43464-1.4881 0.43464c-0.50094 0-0.98468-0.1105-1.4512-0.3315s-0.87173-0.51321-1.2155-0.87664l-0.73667 0.85454c0.42236 0.442 0.92329 0.79069 1.5028 1.0461s1.2081 0.38307 1.8859 0.38307zm6.2664-0.1768v-4.5968c0.24556-0.60898 0.53286-1.0362 0.8619-1.2818s0.64581-0.36834 0.9503-0.36834c0.14733 0 0.27011 0.0098223 0.36834 0.029467s0.20627 0.049111 0.32413 0.0884l0.23573-1.0608c-0.22591-0.098223-0.48129-0.14733-0.76614-0.14733-0.41254 0-0.79315 0.1326-1.1418 0.3978s-0.64581 0.62371-0.89137 1.0755h-0.0442l-0.10313-1.2965h-1.0019v7.1604h1.2081zm6.5758 0.1768c0.43218 0 0.84471-0.081034 1.2376-0.2431s0.7514-0.38552 1.0755-0.67037l-0.5304-0.81034c-0.22591 0.19645-0.47884 0.36588-0.75877 0.5083s-0.58688 0.21363-0.92084 0.21363c-0.32413 0-0.62371-0.0663-0.89874-0.1989s-0.5083-0.31922-0.69984-0.55987-0.34132-0.52795-0.44937-0.8619-0.16207-0.7072-0.16207-1.1197 0.056478-0.78824 0.16943-1.1271 0.26766-0.63108 0.4641-0.87664 0.43218-0.43464 0.7072-0.56724 0.5746-0.1989 0.89874-0.1989c0.28485 0 0.54268 0.058934 0.7735 0.1768s0.44937 0.27011 0.65564 0.45674l0.6188-0.7956c-0.25538-0.22591-0.55005-0.42236-0.884-0.58934s-0.73667-0.25047-1.2081-0.25047c-0.46165 0-0.90119 0.083489-1.3186 0.25047s-0.78333 0.41254-1.0976 0.73667-0.56478 0.71948-0.7514 1.186-0.27993 0.99942-0.27993 1.5986c0 0.58934 0.085945 1.1173 0.25783 1.5838s0.40762 0.85945 0.7072 1.1787 0.65564 0.56232 1.0682 0.7293 0.85454 0.25047 1.326 0.25047z" fill="#fff" fill-rule="nonzero"/>
</g>
</g>
</g>
</svg>
