<svg xmlns="http://www.w3.org/2000/svg" width="39" height="90"><g fill="none" fill-rule="evenodd"><path fill="#2A506F" fill-rule="nonzero" d="M31.38 39.87H8.017v23.21c0 .69.561 1.25 1.251 1.25H30.13a1.25 1.25 0 001.251-1.25V39.87zm-22.363 1H30.38v22.21a.25.25 0 01-.25.25H9.267l-.057-.007a.252.252 0 01-.194-.244V40.87z"/><path fill="#2A506F" fill-rule="nonzero" d="M17.058 48.925H13.09c-.583 0-1.055.471-1.055 1.055v2.732c0 .582.472 1.054 1.055 1.054h3.967c.582 0 1.054-.472 1.054-1.054v-2.733c0-.582-.472-1.054-1.054-1.054zm-3.967 1h3.967c.03 0 .054.024.054.055v2.732c0 .03-.025.054-.054.054H13.09a.055.055 0 01-.055-.054v-2.733c0-.03.024-.054.055-.054zm13.379-1h-3.967c-.583 0-1.055.471-1.055 1.055v2.732c0 .582.472 1.054 1.055 1.054h3.967c.582 0 1.054-.472 1.054-1.054v-2.733c0-.582-.472-1.054-1.054-1.054zm-3.967 1h3.967c.03 0 .054.024.054.055v2.732c0 .03-.025.054-.054.054h-3.967a.055.055 0 01-.055-.054v-2.733c0-.03.024-.054.055-.054z"/><path fill="#2A506F" d="M37.898 35.952a4.43 4.43 0 01-4.418 4.418H5.918A4.43 4.43 0 011.5 35.952V5.418A4.43 4.43 0 015.918 1H33.48a4.43 4.43 0 014.418 4.418v30.534z"/><path fill="#2A506F" fill-rule="nonzero" d="M33.48 0H5.918A5.431 5.431 0 00.5 5.418v30.534a5.431 5.431 0 005.418 5.418H33.48a5.431 5.431 0 005.418-5.418V5.418A5.431 5.431 0 0033.48 0zM5.918 2H33.48a3.43 3.43 0 013.418 3.418v30.534a3.43 3.43 0 01-3.418 3.418H5.918A3.43 3.43 0 012.5 35.952V5.418A3.43 3.43 0 015.918 2z"/><path fill="#FFF" fill-rule="nonzero" d="M14.067 25v-8.634h2.918v-1.031H9.913v1.031h2.917V25h1.237zm5.869 3.3a5.29 5.29 0 001.51-.199 3.765 3.765 0 001.142-.537c.314-.226.555-.489.722-.789.167-.3.25-.616.25-.95 0-.6-.208-1.034-.626-1.304-.417-.27-1.043-.405-1.878-.405H19.67c-.491 0-.825-.074-1.002-.221a.697.697 0 01-.265-.56c0-.196.044-.36.132-.493.089-.133.197-.253.324-.361.167.078.344.14.53.184.187.044.37.066.546.066a2.93 2.93 0 001.024-.177 2.55 2.55 0 00.832-.493c.236-.211.423-.472.56-.781.138-.31.207-.656.207-1.039 0-.304-.057-.584-.17-.84a2.068 2.068 0 00-.42-.633h1.474v-.928h-2.49a3.308 3.308 0 00-.465-.126 3.057 3.057 0 00-1.591.126 2.557 2.557 0 00-.862.508c-.245.22-.44.489-.582.803a2.547 2.547 0 00-.213 1.06c0 .433.096.813.287 1.142.192.33.405.592.641.789v.059a2.234 2.234 0 00-.53.53c-.167.226-.25.491-.25.796 0 .285.06.523.183.714a1.4 1.4 0 00.45.45v.059a2.93 2.93 0 00-.766.75c-.187.276-.28.566-.28.87 0 .315.07.59.213.825.143.236.344.437.604.604.26.167.572.293.936.376a5.37 5.37 0 001.208.125zm0-6.38a1.462 1.462 0 01-1.068-.456 1.528 1.528 0 01-.332-.538 2.052 2.052 0 01-.118-.714c0-.53.148-.94.442-1.23.295-.29.654-.435 1.076-.435.422 0 .78.145 1.076.434.294.29.442.7.442 1.23 0 .266-.04.504-.118.715a1.503 1.503 0 01-.818.877 1.462 1.462 0 01-.582.118zm.177 5.54c-.648 0-1.157-.112-1.525-.338-.368-.226-.553-.53-.553-.914 0-.206.06-.412.177-.619.118-.206.305-.402.56-.589.157.05.317.081.479.096.162.015.312.022.45.022h1.237c.471 0 .83.064 1.075.191.246.128.369.359.369.693 0 .186-.054.368-.162.545-.108.177-.26.332-.457.464-.197.133-.435.24-.715.324-.28.084-.591.125-.935.125zm7.077-2.283c.225 0 .454-.027.685-.081.23-.054.444-.116.64-.184l-.235-.914c-.118.05-.25.093-.398.133a1.619 1.619 0 01-.413.059c-.412 0-.7-.12-.861-.361-.162-.241-.244-.582-.244-1.024v-3.978h1.93v-.987h-1.93v-2.004h-1.016L25.2 17.84l-1.12.073v.914h1.06v3.963c0 .354.035.678.104.972.068.295.184.546.346.752.162.206.373.368.634.486.26.118.581.177.965.177z"/><path fill="#2A506F" fill-rule="nonzero" d="M19.647 73.55c.245 0 .45.178.492.41l.008.09v14.883a.5.5 0 01-.992.09l-.008-.09V74.05a.5.5 0 01.5-.5z"/><path fill="#2A506F" fill-rule="nonzero" d="M14.682 83.856a.5.5 0 01.639-.05l.068.058 4.615 4.719a.5.5 0 01-.646.757l-.068-.058-4.615-4.719a.5.5 0 01.007-.707z"/><path fill="#2A506F" fill-rule="nonzero" d="M24.016 83.96a.5.5 0 01.758.646l-.058.07-4.72 4.614a.5.5 0 01-.757-.646l.058-.069 4.72-4.615z"/></g></svg>