<svg xmlns="http://www.w3.org/2000/svg" width="39" height="90" viewBox="0 0 39 90">
    <g fill="none" fill-rule="evenodd">
        <path fill="#2A506F" fill-rule="nonzero" d="M30.88 39.87H7.517v23.21c0 .69.561 1.25 1.251 1.25H29.63c.692 0 1.251-.56 1.251-1.25V39.87zm-22.363 1H29.88v22.21c0 .138-.112.25-.25.25H8.767l-.057-.007c-.11-.026-.194-.125-.194-.244V40.87z" transform="translate(.5)"/>
        <path fill="#2A506F" fill-rule="nonzero" d="M16.558 48.925H12.59c-.583 0-1.055.471-1.055 1.055v2.732c0 .582.472 1.054 1.055 1.054h3.967c.582 0 1.054-.472 1.054-1.054v-2.733c0-.582-.472-1.054-1.054-1.054zm-3.967 1h3.967c.03 0 .054.024.054.055v2.732c0 .03-.025.054-.054.054H12.59c-.03 0-.055-.024-.055-.054v-2.733c0-.03.024-.054.055-.054zM25.97 48.925h-3.967c-.583 0-1.055.471-1.055 1.055v2.732c0 .582.472 1.054 1.055 1.054h3.967c.582 0 1.054-.472 1.054-1.054v-2.733c0-.582-.472-1.054-1.054-1.054zm-3.967 1h3.967c.03 0 .054.024.054.055v2.732c0 .03-.025.054-.054.054h-3.967c-.03 0-.055-.024-.055-.054v-2.733c0-.03.024-.054.055-.054z" transform="translate(.5)"/>
        <path fill="#2A506F" d="M37.398 35.952c0 2.43-1.988 4.418-4.418 4.418H5.418C2.988 40.37 1 38.382 1 35.952V5.418C1 2.988 2.988 1 5.418 1H32.98c2.43 0 4.418 1.988 4.418 4.418v30.534z" transform="translate(.5)"/>
        <path fill="#2A506F" fill-rule="nonzero" d="M32.98 0H5.418C2.436 0 0 2.436 0 5.418v30.534c0 2.982 2.436 5.418 5.418 5.418H32.98c2.982 0 5.418-2.436 5.418-5.418V5.418C38.398 2.436 35.962 0 32.98 0zM5.418 2H32.98c1.878 0 3.418 1.54 3.418 3.418v30.534c0 1.878-1.54 3.418-3.418 3.418H5.418C3.54 39.37 2 37.83 2 35.952V5.418C2 3.54 3.54 2 5.418 2z" transform="translate(.5)"/>
        <path fill="#FFF" fill-rule="nonzero" d="M13.567 25v-8.634h2.918v-1.031H9.413v1.031h2.917V25h1.237zm5.869 3.3c.56 0 1.063-.066 1.51-.199.447-.132.828-.311 1.142-.537.314-.226.555-.489.722-.789.167-.3.25-.616.25-.95 0-.6-.208-1.034-.626-1.304-.417-.27-1.043-.405-1.878-.405H19.17c-.491 0-.825-.074-1.002-.221-.177-.147-.265-.334-.265-.56 0-.196.044-.36.132-.493.089-.133.197-.253.324-.361.167.078.344.14.53.184.187.044.37.066.546.066.363 0 .705-.059 1.024-.177.32-.118.597-.282.832-.493.236-.211.423-.472.56-.781.138-.31.207-.656.207-1.039 0-.304-.057-.584-.17-.84-.113-.255-.253-.466-.42-.633h1.474v-.928h-2.49c-.138-.05-.293-.091-.465-.126-.171-.034-.356-.051-.552-.051-.363 0-.71.059-1.039.177-.329.117-.616.287-.862.508-.245.22-.44.489-.582.803-.142.314-.213.668-.213 1.06 0 .433.096.813.287 1.142.192.33.405.592.641.789v.059c-.187.127-.363.304-.53.53-.167.226-.25.491-.25.796 0 .285.06.523.183.714.123.192.273.342.45.45v.059c-.324.225-.58.476-.766.75-.187.276-.28.566-.28.87 0 .315.07.59.213.825.143.236.344.437.604.604.26.167.572.293.936.376.363.084.766.125 1.208.125zm0-6.38c-.206 0-.4-.039-.582-.117-.182-.079-.344-.192-.486-.339-.143-.147-.253-.327-.332-.538-.078-.211-.118-.45-.118-.714 0-.53.148-.94.442-1.23.295-.29.654-.435 1.076-.435.422 0 .78.145 1.076.434.294.29.442.7.442 1.23 0 .266-.04.504-.118.715-.079.211-.19.39-.332.538-.142.147-.304.26-.486.339-.182.078-.376.118-.582.118zm.177 5.54c-.648 0-1.157-.112-1.525-.338-.368-.226-.553-.53-.553-.914 0-.206.06-.412.177-.619.118-.206.305-.402.56-.589.157.05.317.081.479.096.162.015.312.022.45.022h1.237c.471 0 .83.064 1.075.191.246.128.369.359.369.693 0 .186-.054.368-.162.545-.108.177-.26.332-.457.464-.197.133-.435.24-.715.324-.28.084-.591.125-.935.125zm7.077-2.283c.225 0 .454-.027.685-.081.23-.054.444-.116.64-.184l-.235-.914c-.118.05-.25.093-.398.133-.147.039-.285.059-.413.059-.412 0-.7-.12-.861-.361-.162-.241-.244-.582-.244-1.024v-3.978h1.93v-.987h-1.93v-2.004h-1.016L24.7 17.84l-1.12.073v.914h1.06v3.963c0 .354.035.678.104.972.068.295.184.546.346.752.162.206.373.368.634.486.26.118.581.177.965.177z" transform="translate(.5)"/>
        <path fill="#2A506F" fill-rule="nonzero" d="M19.147 73.55c.245 0 .45.178.492.41l.008.09v14.883c0 .276-.224.5-.5.5-.245 0-.45-.177-.492-.41l-.008-.09V74.05c0-.276.224-.5.5-.5z" transform="translate(.5)"/>
        <path fill="#2A506F" fill-rule="nonzero" d="M14.182 83.856c.176-.171.446-.188.639-.05l.068.058 4.615 4.719c.194.197.19.514-.007.707-.176.172-.446.188-.639.05l-.068-.058-4.615-4.719c-.194-.197-.19-.514.007-.707z" transform="translate(.5)"/>
        <path fill="#2A506F" fill-rule="nonzero" d="M23.516 83.96c.198-.193.514-.19.707.008.172.175.188.445.051.638l-.058.07-4.72 4.614c-.197.193-.513.19-.706-.008-.172-.175-.188-.445-.051-.638l.058-.069 4.72-4.615z" transform="translate(.5)"/>
    </g>
</svg>
