<svg xmlns="http://www.w3.org/2000/svg" viewBox="0 0 512 512">
<g fill="#4B4B4B">
<path d="M493.607,428.279L213.482,153.388c4.047-7.141,7.359-14.609,9.703-22.313c0.25-2.469,0.75-5.031,1.656-7.641 c0.484-1.469,0.891-2.969,1.297-4.453c6.406-34.656-3.766-71.766-30.563-98.563c-8.469-8.469-17.984-15.266-28.109-20.422 c-0.5,0-1,0.063-1.484,0.172l-9,2.203c-1.688,0.438-3.141,1.5-4.016,3c-0.875,1.484-1.109,3.281-0.641,4.953l19.344,69.469 c0.719,2.594-0.25,5.344-2.422,6.922l-43.953,31.922c-1.344,0.953-3,1.375-4.641,1.156l-46.703-6.438 c-2.547-0.344-4.625-2.156-5.313-4.625L48.217,35.357c-0.938-3.328-4.344-5.344-7.703-4.516l-11.813,2.891 c-0.609,0.156-1.156,0.469-1.703,0.797C13.436,53.544,6.592,75.873,6.498,98.232c0.203,28.063,10.953,56.063,32.359,77.469 c25.828,25.813,61.188,35.938,94.766,31.203c4.844-0.703,9.266-1.188,13.328-1.469c3.875-1.063,7.688-2.453,11.469-3.969 c46.969,47.563,277.766,284.235,277.766,284.235c15.859,15.859,41.563,15.859,57.422,0S509.467,444.139,493.607,428.279z M479.248,471.342c-7.922,7.938-20.766,7.938-28.703,0c-7.938-7.922-7.938-20.781,0-28.719c7.938-7.922,20.781-7.922,28.703,0 C487.186,450.561,487.186,463.42,479.248,471.342z" style="fill: rgb(255, 255, 255);"></path>
<polygon points="406.264,136.31 451.795,124.763 495.623,48.216 474.389,28.076 453.17,7.935 379.029,55.716 369.889,101.763 291.186,184.716 326.998,219.841 " style="fill: rgb(255, 255, 255);"></polygon>
<path d="M178.092,280.373c-9.063,7.844-21.906-1.875-38.719,15.859L28.248,413.326 c-22.219,23.406-21.25,60.406,2.156,82.625s60.391,21.25,82.609-2.156L224.154,376.67c16.813-17.719,6.453-30.016,13.797-39.484 c1.5-1.953,2.875-3.297,4.25-4.313c-21.031-21.531-41.156-42.125-58.578-59.922C182.889,275.42,181.217,277.686,178.092,280.373z" style="fill: rgb(255, 255, 255);"></path>
</g>
</svg>