<?xml version="1.0" encoding="iso-8859-1"?>
<!-- Generator: Adobe Illustrator 16.0.0, SVG Export Plug-In . SVG Version: 6.00 Build 0)  -->
<!DOCTYPE svg PUBLIC "-//W3C//DTD SVG 1.1//EN" "http://www.w3.org/Graphics/SVG/1.1/DTD/svg11.dtd">
<svg xmlns="http://www.w3.org/2000/svg" xmlns:xlink="http://www.w3.org/1999/xlink" version="1.1" id="Capa_1" x="0px" y="0px" width="512px" height="512px" viewBox="0 0 512.209 512.209" style="enable-background:new 0 0 512.209 512.209;" xml:space="preserve">
<g>
	<path d="M507.345,439.683L288.084,37.688c-3.237-5.899-7.71-10.564-13.429-13.988c-5.705-3.427-11.893-5.142-18.554-5.142   s-12.85,1.718-18.558,5.142c-5.708,3.424-10.184,8.089-13.418,13.988L4.859,439.683c-6.663,11.998-6.473,23.989,0.57,35.98   c3.239,5.517,7.664,9.897,13.278,13.128c5.618,3.237,11.66,4.859,18.132,4.859h438.529c6.479,0,12.519-1.622,18.134-4.859   c5.62-3.23,10.038-7.611,13.278-13.128C513.823,463.665,514.015,451.681,507.345,439.683z M292.655,411.132   c0,2.662-0.91,4.897-2.71,6.704c-1.807,1.811-3.949,2.71-6.427,2.71h-54.816c-2.474,0-4.616-0.899-6.423-2.71   c-1.809-1.807-2.713-4.042-2.713-6.704v-54.248c0-2.662,0.905-4.897,2.713-6.704c1.807-1.811,3.946-2.71,6.423-2.71h54.812   c2.479,0,4.62,0.899,6.428,2.71c1.803,1.807,2.71,4.042,2.71,6.704v54.248H292.655z M292.088,304.357   c-0.198,1.902-1.198,3.47-3.001,4.709c-1.811,1.238-4.046,1.854-6.711,1.854h-52.82c-2.663,0-4.947-0.62-6.849-1.854   c-1.908-1.243-2.858-2.807-2.858-4.716l-4.853-130.47c0-2.667,0.953-4.665,2.856-5.996c2.474-2.093,4.758-3.14,6.854-3.14h62.809   c2.098,0,4.38,1.043,6.854,3.14c1.902,1.331,2.851,3.14,2.851,5.424L292.088,304.357z" fill="#D80027"/>
</g>
</svg>
