<svg xmlns="http://www.w3.org/2000/svg" width="130" height="14" viewBox="0 0 130 14">
    <g fill="none" fill-rule="evenodd">
        <g fill="#FFF">
            <path d="M2.25 6H.75C.332 6 0 6.224 0 6.5c0 .278.335.5.75.5h1.5c.417 0 .75-.224.75-.5 0-.278-.336-.5-.75-.5M4 3.5a.499.499 0 1 0 .5-.5c-.278 0-.5.224-.5.5M4 .5c0-.278-.32-.5-.715-.5H.715C.321 0 0 .224 0 .5c0 .278.32.5.715.5h2.57C3.679 1 4 .776 4 .5M71.72 11.26h-5.881V8.32h4.953c.705 0 1.28-.6 1.28-1.36 0-.76-.575-1.38-1.28-1.38H65.84V2.74h5.788c.705 0 1.28-.6 1.28-1.36 0-.76-.575-1.38-1.28-1.38H64.43C63.63 0 63 .68 63 1.54v10.92c0 .86.63 1.54 1.429 1.54h7.29c.706 0 1.281-.6 1.281-1.36 0-.76-.575-1.38-1.28-1.38"/>
            <path d="M22.69 11.25h-6.018V8.313h5.069c.721 0 1.31-.6 1.31-1.359 0-.76-.589-1.379-1.31-1.379h-5.07V2.738h5.924c.722 0 1.31-.6 1.31-1.36C23.905.62 23.317 0 22.595 0h-8.828.539-8.398C5.5 0 5.176.35 5.176.779c0 .433.328.777.732.777h4.722c.404.004.73.347.73.777 0 .43-.33.777-.736.777H6.793c-.399 0-.732.348-.732.777 0 .432.328.777.732.777h5.009c.407 0 .736.345.736.777 0 .43-.331.777-.736.777H4.733c-.402 0-.733.348-.733.777 0 .432.328.777.733.777h4.419c.407 0 .737.345.737.777 0 .43-.332.777-.737.777H5.623c-.41 0-.74.348-.74.777 0 .432.331.777.74.777h5.21c.407 0 .736.345.736.777 0 .43-.331.777-.736.777H9.742c-.405 0-.737.348-.737.777 0 .432.296.751.737.778.433.027 4.421 0 4.558 0h8.39c.722 0 1.31-.6 1.31-1.359 0-.76-.588-1.379-1.31-1.379M83.062 4.779c0 1.17-.81 1.963-2.223 1.963h-2.938V2.756h2.881c1.413 0 2.28.675 2.28 1.983v.04zm.301 4.065C84.964 8.15 86 6.802 86 4.62c0-1.348-.396-2.439-1.13-3.212C84.003.496 82.704 0 81.027 0H76.45C75.64 0 75 .674 75 1.527v10.946c0 .853.64 1.527 1.45 1.527.81 0 1.45-.674 1.45-1.527V9.44h2.317l2.826 3.768c.339.456.772.793 1.431.793.697 0 1.375-.555 1.375-1.408 0-.476-.188-.793-.47-1.17l-2.016-2.578zM59.57 0c-.8 0-1.432.668-1.432 1.514v4.05h-5.277v-4.05C52.861.668 52.23 0 51.431 0 50.63 0 50 .668 50 1.514v10.972c0 .845.632 1.514 1.43 1.514.8 0 1.431-.669 1.431-1.514v-4.13h5.277v4.13c0 .845.632 1.514 1.431 1.514.8 0 1.431-.669 1.431-1.514V1.514C61 .668 60.368 0 59.57 0M34.68 0h-8.36C25.594 0 25 .635 25 1.408c0 .773.595 1.408 1.32 1.408h2.75v9.657c0 .853.631 1.527 1.43 1.527.799 0 1.43-.674 1.43-1.527V2.816h2.75c.725 0 1.32-.635 1.32-1.408C36 .635 35.405 0 34.68 0M46.637 9.862c-.34 0-.643.135-.87.329-.833.676-1.647 1.063-2.877 1.063-2.272 0-3.843-1.934-3.843-4.254 0-2.36 1.61-4.254 3.843-4.254 1.04 0 1.892.348 2.706.967.208.135.473.29.87.29.796 0 1.44-.638 1.44-1.45a1.5 1.5 0 0 0-.568-1.18C46.24.54 44.896 0 42.908 0 38.84 0 36 3.152 36 7c0 3.926 2.896 7 6.795 7 2.12 0 3.52-.638 4.713-1.702.265-.232.492-.6.492-1.063a1.38 1.38 0 0 0-1.363-1.373"/>
        </g>
        <g fill="#F7C30F">
            <path d="M105.841 6.755c1.186 0 2.349.026 3.51-.01.782-.023 1.443-.696 1.568-1.492.187-1.195-.61-2.212-1.754-2.222-1.06-.009-2.119-.002-3.178-.001-.049 0-.098.01-.146.017v3.708zm5.764 2.357l1.954 2.28c.498.578.579 1.27.22 1.894-.448.779-1.506.968-2.118.33-.596-.62-1.142-1.297-1.707-1.952-.504-.583-1.003-1.172-1.51-1.754-.05-.059-.136-.116-.206-.117-.775-.008-1.551-.005-2.328-.004-.018 0-.036.007-.079.016v.218c0 .787.007 1.575-.002 2.362-.009.828-.525 1.44-1.276 1.532-.738.09-1.45-.517-1.526-1.307a5.406 5.406 0 0 1-.026-.516L103 1.652c0-.66.228-1.191.805-1.48.203-.103.446-.158.671-.16 1.578-.013 3.156-.017 4.734-.004 2.19.017 4.026 1.579 4.47 3.878.342 1.775-.115 3.333-1.362 4.593-.22.222-.465.414-.713.633zM127.025 7.02c0-2.215-1.802-4.03-4-4.029-2.208.002-4.002 1.802-4.008 4.021a4.013 4.013 0 0 0 4 4.046c2.21.01 4.007-1.802 4.008-4.038m2.913.01c.008 3.89-3.143 6.977-6.93 6.97-3.91-.008-6.932-3.259-6.908-6.997.025-3.839 3.157-6.979 6.946-6.949 3.822.03 6.916 3.162 6.892 6.976M92.892 6.8h1.02c.841-.002 1.684.023 2.525-.013 1.17-.05 1.946-1.264 1.587-2.436-.242-.787-.905-1.298-1.716-1.304-1.098-.007-2.197-.001-3.295 0-.038 0-.075.006-.12.01V6.8zm-.009 3.039v2.57c0 .656-.268 1.146-.829 1.442-.854.45-1.928-.173-2.027-1.175a5.29 5.29 0 0 1-.026-.518L90 1.666c0-.663.228-1.198.815-1.49.207-.104.454-.16.683-.163 1.62-.013 3.239-.02 4.858-.004 2.251.022 4.138 1.667 4.56 3.997.518 2.87-1.408 5.468-3.987 5.789-.235.03-.473.04-.709.042-1.033.004-2.067.002-3.1.002h-.237z"/>
        </g>
    </g>
</svg>
