<svg xmlns="http://www.w3.org/2000/svg" width="249" height="27" viewBox="0 0 249 27">
    <g fill="none" fill-rule="evenodd">
        <g fill="#C3C3C3">
            <path d="M138.44 21.911h-11.763v-5.46h9.907c1.41 0 2.56-1.114 2.56-2.525a2.567 2.567 0 0 0-2.56-2.563h-9.907V6.088h11.577c1.41 0 2.56-1.114 2.56-2.525A2.567 2.567 0 0 0 138.254 1h-14.397A2.836 2.836 0 0 0 121 3.86v20.28a2.836 2.836 0 0 0 2.857 2.86h14.583c1.41 0 2.56-1.114 2.56-2.526a2.567 2.567 0 0 0-2.56-2.563M4.501 12H1.498C.665 12 0 12.672 0 13.5c0 .834.67 1.5 1.498 1.5h3.003C5.335 15 6 14.328 6 13.5c0-.834-.671-1.5-1.499-1.5M8 7.5C8 8.334 8.672 9 9.5 9c.834 0 1.5-.672 1.5-1.5 0-.834-.672-1.5-1.5-1.5C8.666 6 8 6.672 8 7.5M9 1.5C9 .666 8.36 0 7.57 0H2.43C1.641 0 1 .672 1 1.5 1 2.334 1.64 3 2.43 3h5.14C8.359 3 9 2.328 9 1.5"/>
            <path d="M44.446 21.893H32.71v-5.455h9.885c1.407 0 2.554-1.113 2.554-2.523 0-1.41-1.147-2.561-2.554-2.561H32.71v-5.27h11.55c1.407 0 2.555-1.113 2.555-2.524 0-1.41-1.148-2.56-2.554-2.56H27.046l1.05.002H11.72c-.793 0-1.427.646-1.427 1.443 0 .803.64 1.444 1.427 1.444h9.209a1.435 1.435 0 0 1 1.424 1.442c0 .797-.646 1.443-1.435 1.443h-7.472c-.777 0-1.427.646-1.427 1.443 0 .803.639 1.443 1.427 1.443H23.214c.793 0 1.436.64 1.436 1.443 0 .797-.646 1.443-1.436 1.443H9.43A1.44 1.44 0 0 0 8 13.99c0 .803.64 1.443 1.429 1.443h8.618c.793 0 1.436.64 1.436 1.443 0 .797-.646 1.443-1.436 1.443H11.164c-.798 0-1.442.646-1.442 1.443 0 .802.646 1.443 1.442 1.443H21.324c.793 0 1.436.64 1.436 1.443 0 .797-.646 1.443-1.436 1.443h-2.127c-.79 0-1.437.646-1.437 1.443 0 .802.578 1.395 1.437 1.445.845.05 8.621 0 8.887-.002l16.362.002c1.406 0 2.554-1.114 2.554-2.524s-1.148-2.56-2.554-2.56M160.123 9.875c0 2.173-1.62 3.646-4.445 3.646h-5.877V6.12h5.764c2.825 0 4.558 1.252 4.558 3.682v.074zm.603 7.55c3.202-1.29 5.274-3.793 5.274-7.844 0-2.505-.791-4.53-2.26-5.966C162.007 1.92 159.407 1 156.055 1H146.9C145.28 1 144 2.252 144 3.836v20.328c0 1.584 1.28 2.836 2.9 2.836 1.62 0 2.901-1.252 2.901-2.836V18.53h4.634l5.65 6.997c.679.847 1.545 1.473 2.864 1.473 1.393 0 2.75-1.031 2.75-2.615 0-.884-.377-1.473-.942-2.173l-4.031-4.787zM114.138 0c-1.598 0-2.861 1.241-2.861 2.812v7.522h-10.554V2.812C100.723 1.242 99.46 0 97.86 0 96.264 0 95 1.241 95 2.812v20.376C95 24.758 96.264 26 97.861 26c1.599 0 2.862-1.242 2.862-2.812V15.52h10.554v7.668c0 1.57 1.263 2.812 2.861 2.812 1.598 0 2.862-1.242 2.862-2.812V2.812C117 1.242 115.736 0 114.138 0M66.361 1H49.64C48.189 1 47 2.179 47 3.615c0 1.436 1.19 2.614 2.639 2.614h5.5v17.935C55.139 25.748 56.402 27 58 27c1.598 0 2.862-1.252 2.862-2.836V6.23h5.5C67.81 6.23 69 5.051 69 3.615S67.81 1 66.361 1M89.388 19.02c-.653 0-1.233.26-1.669.633-1.596 1.306-3.156 2.052-5.514 2.052-4.353 0-7.364-3.73-7.364-8.205 0-4.55 3.083-8.205 7.364-8.205 1.995 0 3.628.672 5.188 1.865.399.261.907.56 1.668.56 1.524 0 2.758-1.231 2.758-2.797a2.9 2.9 0 0 0-1.089-2.275C88.626 1.044 86.05 0 82.241 0 74.441 0 69 6.079 69 13.5 69 21.07 74.55 27 82.024 27c4.063 0 6.747-1.23 9.033-3.282a2.732 2.732 0 0 0 .943-2.05c0-1.455-1.197-2.649-2.612-2.649"/>
        </g>
        <g fill="#383838">
            <path d="M202.682 13.545c2.371 0 4.697.049 7.02-.017 1.564-.044 2.885-1.294 3.135-2.773.376-2.219-1.219-4.108-3.507-4.126-2.119-.016-4.238-.004-6.357-.002-.097 0-.194.02-.29.031v6.887zm11.527 4.378c1.307 1.415 2.607 2.825 3.91 4.232.994 1.074 1.156 2.359.438 3.519-.894 1.446-3.012 1.797-4.235.614-1.192-1.153-2.284-2.41-3.415-3.625-1.008-1.085-2.005-2.179-3.017-3.259-.102-.109-.273-.216-.413-.217-1.552-.015-3.104-.009-4.656-.007-.037 0-.073.013-.158.03v.404c0 1.462.013 2.925-.004 4.387-.018 1.537-1.052 2.673-2.552 2.844-1.478.169-2.902-.96-3.053-2.426a9.329 9.329 0 0 1-.052-.958C197 16.996 197 10.532 197 4.068c0-1.227.455-2.212 1.61-2.75.406-.19.891-.292 1.342-.295a623.98 623.98 0 0 1 9.467-.009c4.381.033 8.054 2.933 8.94 7.203.685 3.297-.23 6.19-2.724 8.53-.439.412-.93.769-1.426 1.176zM243.262 13.539c.001-4.272-3.474-7.772-7.713-7.77-4.258.003-7.72 3.475-7.73 7.755-.011 4.313 3.42 7.782 7.715 7.802 4.26.018 7.727-3.474 7.728-7.787m5.618.018c.017 7.503-6.061 13.457-13.363 13.443-7.543-.015-13.37-6.285-13.324-13.494.048-7.404 6.088-13.46 13.395-13.401 7.371.058 13.338 6.098 13.292 13.452M177.522 13.629h1.945c1.607-.004 3.216.042 4.821-.024 2.235-.092 3.716-2.349 3.03-4.525-.461-1.46-1.727-2.41-3.275-2.42-2.097-.014-4.194-.004-6.292-.003-.071 0-.143.013-.23.02v6.952zm-.018 5.643v4.773c-.001 1.219-.512 2.129-1.583 2.679-1.63.836-3.681-.323-3.869-2.182a9.56 9.56 0 0 1-.05-.963c-.002-6.495-.001-12.99-.002-19.485 0-1.232.435-2.226 1.557-2.768a3.14 3.14 0 0 1 1.303-.301c3.091-.025 6.183-.037 9.274-.008 4.298.041 7.9 3.096 8.704 7.422.99 5.33-2.686 10.156-7.61 10.752-.448.054-.902.075-1.353.077-1.973.008-3.946.004-5.919.004h-.452z"/>
        </g>
    </g>
</svg>
