<svg xmlns="http://www.w3.org/2000/svg" width="449" height="49" viewBox="0 0 449 49">
    <g fill="none" fill-rule="evenodd">
        <g fill="#FFF">
            <path d="M249.358 39.765h-21.186v-9.91h17.844c2.54 0 4.612-2.021 4.612-4.583 0-2.561-2.072-4.65-4.612-4.65h-17.844v-9.573h20.852c2.54 0 4.612-2.022 4.612-4.583 0-2.562-2.072-4.651-4.612-4.651h-25.932c-2.874 0-5.146 2.291-5.146 5.19V43.81c0 2.898 2.272 5.19 5.146 5.19h26.266c2.54 0 4.612-2.022 4.612-4.584 0-2.561-2.072-4.651-4.612-4.651M8.108 21.778H2.699A2.704 2.704 0 0 0 0 24.5a2.704 2.704 0 0 0 2.699 2.722h5.409c1.501 0 2.7-1.219 2.7-2.722a2.705 2.705 0 0 0-2.7-2.722M14.41 13.611a2.705 2.705 0 0 0 2.701 2.722 2.706 2.706 0 0 0 2.702-2.722 2.705 2.705 0 0 0-2.702-2.722 2.705 2.705 0 0 0-2.701 2.722M16.21 2.722C16.21 1.208 15.058 0 13.636 0H4.377C2.956 0 1.801 1.22 1.801 2.722c0 1.514 1.153 2.722 2.576 2.722h9.258c1.42 0 2.576-1.219 2.576-2.722"/>
            <path d="M80.056 39.732H58.917v-9.9h17.805a4.576 4.576 0 0 0 4.6-4.58c0-2.56-2.066-4.647-4.6-4.647H58.917v-9.564h20.805a4.576 4.576 0 0 0 4.601-4.58c0-2.559-2.067-4.646-4.6-4.646H48.714l1.893.003H21.11c-1.429 0-2.57 1.173-2.57 2.62 0 1.457 1.15 2.62 2.57 2.62h16.587c1.419.01 2.566 1.167 2.566 2.617 0 1.447-1.164 2.619-2.586 2.619H24.218c-1.398 0-2.57 1.172-2.57 2.619 0 1.456 1.151 2.618 2.57 2.618H41.813c1.429 0 2.587 1.163 2.587 2.619 0 1.446-1.164 2.619-2.587 2.619H16.983c-1.41 0-2.573 1.172-2.573 2.619 0 1.456 1.152 2.618 2.574 2.618h15.523c1.427 0 2.585 1.163 2.585 2.62 0 1.446-1.163 2.618-2.585 2.618H20.109a2.605 2.605 0 0 0-2.597 2.619 2.602 2.602 0 0 0 2.597 2.618h18.3c1.428 0 2.586 1.163 2.586 2.619 0 1.446-1.164 2.619-2.586 2.619h-3.83c-1.425 0-2.589 1.172-2.589 2.618 0 1.457 1.04 2.532 2.588 2.623 1.522.09 15.528 0 16.007-.003l29.47.002c2.535 0 4.602-2.02 4.602-4.58 0-2.559-2.067-4.647-4.601-4.647M288.415 17.922c0 3.943-2.918 6.616-8.007 6.616h-10.585V11.105h10.381c5.09 0 8.21 2.272 8.21 6.683v.134zm1.085 13.7c5.768-2.338 9.5-6.883 9.5-14.235 0-4.545-1.425-8.22-4.071-10.827-3.121-3.075-7.803-4.745-13.842-4.745h-16.489c-2.918 0-5.225 2.272-5.225 5.146v36.893c0 2.873 2.307 5.146 5.225 5.146 2.918 0 5.225-2.273 5.225-5.146V33.628h8.346l10.178 12.698c1.221 1.537 2.782 2.674 5.157 2.674 2.51 0 4.953-1.872 4.953-4.745 0-1.604-.678-2.674-1.696-3.944l-7.26-8.688zM205.587 0c-2.879 0-5.154 2.253-5.154 5.103v13.652h-19.01V5.103c0-2.85-2.276-5.103-5.155-5.103-2.878 0-5.154 2.253-5.154 5.103v36.98c0 2.849 2.276 5.102 5.154 5.102 2.879 0 5.155-2.253 5.155-5.103V28.165h19.01v13.917c0 2.85 2.275 5.103 5.154 5.103 2.878 0 5.154-2.253 5.154-5.103V5.103c0-2.85-2.276-5.103-5.154-5.103M119.53 1.815H89.41c-2.611 0-4.753 2.139-4.753 4.745 0 2.606 2.142 4.745 4.752 4.745h9.907v32.549c0 2.874 2.276 5.146 5.154 5.146s5.154-2.272 5.154-5.146V11.305h9.907c2.61 0 4.752-2.139 4.752-4.745 0-2.606-2.142-4.745-4.752-4.745M161.006 34.517c-1.176 0-2.221.473-3.006 1.15-2.875 2.369-5.685 3.723-9.932 3.723-7.841 0-13.264-6.768-13.264-14.89 0-8.257 5.554-14.89 13.264-14.89 3.594 0 6.534 1.218 9.344 3.384.719.474 1.634 1.016 3.006 1.016 2.744 0 4.966-2.234 4.966-5.076 0-1.828-.915-3.317-1.96-4.129-3.79-2.91-8.43-4.805-15.29-4.805-14.05 0-23.85 11.032-23.85 24.5 0 13.74 9.997 24.5 23.457 24.5 7.319 0 12.154-2.233 16.27-5.956.915-.812 1.7-2.098 1.7-3.722 0-2.64-2.157-4.805-4.705-4.805"/>
        </g>
        <g fill="#383838">
            <path d="M366.006 24.582c4.25 0 8.42.088 12.584-.031 2.804-.08 5.173-2.348 5.62-5.032.674-4.028-2.184-7.456-6.288-7.488-3.798-.03-7.596-.008-11.395-.004-.174 0-.349.037-.521.056v12.499zm20.664 7.944c2.344 2.568 4.673 5.127 7.009 7.681 1.783 1.95 2.074 4.281.787 6.387-1.605 2.625-5.4 3.261-7.594 1.114-2.137-2.093-4.094-4.373-6.12-6.58-1.808-1.967-3.596-3.953-5.41-5.913-.183-.197-.49-.392-.741-.395-2.782-.027-5.564-.016-8.347-.012-.066 0-.132.025-.283.055v.733c0 2.654.024 5.308-.007 7.96-.033 2.79-1.886 4.853-4.575 5.163-2.65.306-5.203-1.741-5.474-4.404-.06-.577-.092-1.159-.092-1.738-.006-11.732-.004-23.463-.004-35.194 0-2.226.816-4.015 2.885-4.991a5.913 5.913 0 0 1 2.407-.536c5.657-.045 11.315-.057 16.972-.015 7.854.058 14.438 5.323 16.028 13.072 1.227 5.982-.412 11.232-4.884 15.48-.787.747-1.667 1.395-2.557 2.133zM438.755 24.57c.001-7.752-6.229-14.105-13.827-14.1-7.635.004-13.84 6.305-13.86 14.073-.02 7.828 6.132 14.124 13.832 14.159 7.639.034 13.853-6.304 13.855-14.131m10.072.033C448.856 38.22 437.96 49.026 424.87 49c-13.523-.027-23.97-11.406-23.886-24.488C401.07 11.075 411.897.084 424.997.19c13.215.107 23.912 11.066 23.83 24.414M320.9 24.733c1.198 0 2.342.002 3.486 0 2.882-.006 5.766.078 8.644-.042 4.007-.168 6.662-4.263 5.431-8.213-.826-2.65-3.096-4.375-5.871-4.392-3.76-.024-7.52-.007-11.28-.005-.128 0-.256.023-.41.038v12.614zm-.033 10.242c0 2.958.002 5.81 0 8.661-.002 2.213-.917 3.865-2.837 4.862-2.922 1.519-6.6-.585-6.936-3.96-.058-.579-.09-1.164-.09-1.746-.005-11.788-.003-23.576-.004-35.363 0-2.235.78-4.038 2.79-5.023a5.571 5.571 0 0 1 2.337-.547 936.323 936.323 0 0 1 16.626-.013c7.705.075 14.163 5.618 15.604 13.47 1.776 9.67-4.815 18.43-13.644 19.511-.803.099-1.616.138-2.424.141-3.537.015-7.074.007-10.611.007h-.81z"/>
        </g>
    </g>
</svg>
