<?xml version="1.0" encoding="utf-8"?>
<!-- Generator: Adobe Illustrator 17.0.0, SVG Export Plug-In . SVG Version: 6.00 Build 0)  -->
<!DOCTYPE svg PUBLIC "-//W3C//DTD SVG 1.1//EN" "http://www.w3.org/Graphics/SVG/1.1/DTD/svg11.dtd">
<svg version="1.1" id="Capa_1" xmlns="http://www.w3.org/2000/svg" xmlns:xlink="http://www.w3.org/1999/xlink" x="0px" y="0px"
	 width="999.944px" height="999.986px" viewBox="500.028 0 999.944 999.986" enable-background="new 500.028 0 999.944 999.986"
	 xml:space="preserve">
<g>
	<g>
		<path fill="#FFFFFF" d="M1174.844,499.923c0-96.492-78.443-174.991-174.991-174.991c-96.492,0-174.991,78.498-174.991,174.991
			s78.498,174.991,174.991,174.991c50.949,0,96.548-22.254,128.442-57.25l-29.505-94.243l67.853,26.292
			C1171.491,533.927,1174.844,517.428,1174.844,499.923z M999.853,599.922c-55.196,0-99.999-44.802-99.999-99.999
			s44.802-99.999,99.999-99.999c55.196,0,99.999,44.802,99.999,99.999S1055.091,599.922,999.853,599.922z"/>
		<path fill="#FFFFFF" d="M1109.296,675.808c7.055-8.843,11.693-15.255,15.395-20.802c-34.353,27.647-77.339,44.9-124.74,44.9
			c-110.295,0-199.983-89.689-199.983-199.983S889.656,299.94,999.951,299.94s199.983,89.689,199.983,199.983
			c0,20.648-4.051,40.248-9.849,58.996l5.7,2.151c15.395,5.951,29.854,13.495,43.098,22.255
			c-2.249-40.542,6.147-85.302,44.649-129.587l72.1-83.192l15.2,108.995c4.904,34.995,42.847,82.899,76.389,125.187
			c10.505,13.3,21.053,26.655,31.251,40.248c13.9-45.948,21.5-94.592,21.5-144.997C1499.972,223.886,1276.128,0,999.993,0
			S500.028,223.886,500.028,499.979s223.83,499.965,499.965,499.965c44.048,0,86.489-6.245,127.24-17.002
			c-44.802-45.096-72.24-106.593-72.24-173.286C1054.896,744.206,1086.245,704.712,1109.296,675.808z"/>
		<path fill="#FFFFFF" d="M1283.476,756.709c-3.604-54.791-29.603-119.445-105.95-149.048
			c26.948,86.252-72.743,101.438-72.743,202.037c0,91.589,62.698,167.838,147.246,190.288c-27.843-25.845,10.1-76.096-18.846-112.6
			c36.35,11.553,69.097,38.153,69.097,84.799c36.392-24.755-8.955-92.497,58.354-137.341
			c-20.592,61.092,34.995,90.639,25.901,130.887c-2.654,11.805-8.494,20.899-15.898,28.597
			c75.243-27.954,129.196-99.691,129.196-184.644c0-109.093-164.289-219.933-178.637-323.228
			C1233.183,587.921,1321.782,652.017,1283.476,756.709z"/>
	</g>
</g>
</svg>
