<?xml version="1.0" encoding="utf-8"?>
<!-- Generator: Adobe Illustrator 17.0.0, SVG Export Plug-In . SVG Version: 6.00 Build 0)  -->
<!DOCTYPE svg PUBLIC "-//W3C//DTD SVG 1.1//EN" "http://www.w3.org/Graphics/SVG/1.1/DTD/svg11.dtd">
<svg version="1.1" id="Capa_1" xmlns="http://www.w3.org/2000/svg" xmlns:xlink="http://www.w3.org/1999/xlink" x="0px" y="0px"
	 viewBox="0 0 134.229 134.229" enable-background="new 0 0 134.229 134.229"
	 xml:space="preserve">
<g>
	<g>
		<path fill="#FFFFFF" d="M21.343,112.528c2.317,0,4.195,1.875,4.195,4.189c0,2.319-1.878,4.201-4.195,4.201
			c-2.32,0-4.199-1.882-4.199-4.201C17.144,114.403,19.022,112.528,21.343,112.528z"/>
		<path fill="#FFFFFF" d="M131.246,110.53L119.604,5.8C119.25,2.615,116.047,0,112.48,0H21.754c-3.568,0-6.777,2.615-7.127,5.8
			L2.984,110.53c0,0.129-0.061,0.232-0.061,0.359v11.667c0,6.437,5.237,11.673,11.667,11.673h105.05
			c6.431,0,11.667-5.236,11.667-11.673v-11.667C131.307,110.762,131.246,110.652,131.246,110.53z M125.474,122.556
			c0,3.222-2.631,5.84-5.84,5.84H14.59c-3.206,0-5.836-2.618-5.836-5.84v-11.667c0-3.221,2.63-5.839,5.836-5.839h105.05
			c3.203,0,5.834,2.618,5.834,5.839V122.556L125.474,122.556z"/>
	</g>
</g>
</svg>
