<?xml version="1.0" encoding="utf-8"?>
<!-- Generator: Adobe Illustrator 17.0.0, SVG Export Plug-In . SVG Version: 6.00 Build 0)  -->
<!DOCTYPE svg PUBLIC "-//W3C//DTD SVG 1.1//EN" "http://www.w3.org/Graphics/SVG/1.1/DTD/svg11.dtd">
<svg version="1.1" id="Layer_1" xmlns="http://www.w3.org/2000/svg" xmlns:xlink="http://www.w3.org/1999/xlink" x="0px" y="0px"
	 viewBox="0 0 41 41" enable-background="new 0 0 41 41" xml:space="preserve">
<g>
	<path fill-rule="evenodd" clip-rule="evenodd" fill="#FFFFFF" d="M20.5,0C31.822,0,41,9.178,41,20.5S31.822,41,20.5,41
		S0,31.822,0,20.5S9.178,0,20.5,0z"/>
	<path fill-rule="evenodd" clip-rule="evenodd" fill="#555760" d="M20.5,12c4.694,0,8.5,3.806,8.5,8.5S25.194,29,20.5,29
		S12,25.194,12,20.5S15.806,12,20.5,12z"/>
	<path fill-rule="evenodd" clip-rule="evenodd" fill="#FFFFFF" d="M20.5,12.625c4.349,0,7.875,3.526,7.875,7.875
		s-3.526,7.875-7.875,7.875s-7.875-3.526-7.875-7.875S16.151,12.625,20.5,12.625z"/>
	<path fill-rule="evenodd" clip-rule="evenodd" fill="#555760" d="M20.5,16c2.485,0,4.5,2.015,4.5,4.5S22.985,25,20.5,25
		S16,22.985,16,20.5S18.015,16,20.5,16z"/>
</g>
</svg>
